<svg width="137" height="49" viewBox="0 0 137 49" fill="none" xmlns="http://www.w3.org/2000/svg">
<path d="M27 35H110" stroke="#C4C4C4" stroke-width="2"/>
<path d="M27 14H110" stroke="#C4C4C4" stroke-width="2"/>
<path d="M61.6605 29V20.2727H63.7699V23.7756H67.2088V20.2727H69.3139V29H67.2088V25.4929H63.7699V29H61.6605ZM73.6967 29.1236C73.0121 29.1236 72.4212 28.9886 71.924 28.7188C71.4297 28.446 71.049 28.0582 70.782 27.5554C70.5178 27.0497 70.3857 26.4489 70.3857 25.7528C70.3857 25.0767 70.5192 24.4858 70.7862 23.9801C71.0533 23.4716 71.4297 23.0767 71.9155 22.7955C72.4013 22.5114 72.9737 22.3693 73.6328 22.3693C74.0987 22.3693 74.5249 22.4418 74.9112 22.5866C75.2976 22.7315 75.6314 22.946 75.9126 23.2301C76.1939 23.5142 76.4126 23.8651 76.5689 24.2827C76.7251 24.6974 76.8033 25.1733 76.8033 25.7102V26.2301H71.1143V25.0199H74.8643C74.8615 24.7983 74.8089 24.6009 74.7067 24.4276C74.6044 24.2543 74.4638 24.1193 74.2848 24.0227C74.1087 23.9233 73.9055 23.8736 73.6754 23.8736C73.4425 23.8736 73.2337 23.9261 73.049 24.0312C72.8643 24.1335 72.718 24.2741 72.6101 24.4531C72.5021 24.6293 72.4453 24.8295 72.4396 25.054V26.2855C72.4396 26.5526 72.4922 26.7869 72.5973 26.9886C72.7024 27.1875 72.8516 27.3423 73.0447 27.4531C73.2379 27.5639 73.468 27.6193 73.7351 27.6193C73.9197 27.6193 74.0874 27.5937 74.2379 27.5426C74.3885 27.4915 74.5178 27.4162 74.6257 27.3168C74.7337 27.2173 74.8146 27.0952 74.8686 26.9503L76.782 27.0057C76.7024 27.4347 76.5277 27.8082 76.2578 28.1264C75.9908 28.4418 75.6399 28.6875 75.2053 28.8636C74.7706 29.0369 74.2678 29.1236 73.6967 29.1236ZM79.7127 29.1108C79.2951 29.1108 78.9244 29.0412 78.6005 28.902C78.2795 28.7599 78.0252 28.5469 77.8377 28.2628C77.6531 27.9759 77.5607 27.6165 77.5607 27.1847C77.5607 26.821 77.6246 26.5142 77.7525 26.2642C77.8803 26.0142 78.0565 25.8111 78.2809 25.6548C78.5053 25.4986 78.7638 25.3807 79.0565 25.3011C79.3491 25.2187 79.6616 25.1634 79.994 25.1349C80.3661 25.1009 80.6658 25.0653 80.8931 25.0284C81.1204 24.9886 81.2852 24.9332 81.3874 24.8622C81.4925 24.7884 81.5451 24.6847 81.5451 24.5511V24.5298C81.5451 24.3111 81.4698 24.142 81.3192 24.0227C81.1687 23.9034 80.9656 23.8438 80.7099 23.8438C80.4343 23.8438 80.2127 23.9034 80.0451 24.0227C79.8775 24.142 79.771 24.3068 79.7255 24.517L77.8036 24.4489C77.8604 24.0511 78.0067 23.696 78.2425 23.3835C78.4812 23.0682 78.8079 22.821 79.2227 22.642C79.6403 22.4602 80.1417 22.3693 80.7269 22.3693C81.1445 22.3693 81.5295 22.419 81.8817 22.5185C82.234 22.6151 82.5408 22.7571 82.8022 22.9446C83.0636 23.1293 83.2653 23.3565 83.4073 23.6264C83.5522 23.8963 83.6246 24.2045 83.6246 24.5511V29H81.6644V28.0881H81.6133C81.4968 28.3097 81.3477 28.4972 81.1658 28.6506C80.9869 28.804 80.7752 28.919 80.5309 28.9957C80.2894 29.0724 80.0167 29.1108 79.7127 29.1108ZM80.3562 27.7472C80.5806 27.7472 80.7823 27.7017 80.9613 27.6108C81.1431 27.5199 81.288 27.3949 81.396 27.2358C81.5039 27.0739 81.5579 26.8864 81.5579 26.6733V26.0511C81.4982 26.0824 81.4258 26.1108 81.3406 26.1364C81.2582 26.1619 81.1673 26.1861 81.0678 26.2088C80.9684 26.2315 80.8661 26.2514 80.761 26.2685C80.6559 26.2855 80.555 26.3011 80.4585 26.3153C80.2624 26.3466 80.0948 26.3949 79.9556 26.4602C79.8192 26.5256 79.7141 26.6108 79.6403 26.7159C79.5692 26.8182 79.5337 26.9403 79.5337 27.0824C79.5337 27.2983 79.6104 27.4631 79.7638 27.5767C79.9201 27.6903 80.1175 27.7472 80.3562 27.7472ZM87.2894 29.0938C86.8065 29.0938 86.3675 28.9688 85.9727 28.7188C85.5778 28.4688 85.2624 28.0938 85.0266 27.5938C84.7908 27.0938 84.6729 26.473 84.6729 25.7315C84.6729 24.9616 84.7951 24.3281 85.0394 23.831C85.2837 23.3338 85.6033 22.9659 85.9982 22.7273C86.396 22.4886 86.8235 22.3693 87.2809 22.3693C87.6246 22.3693 87.9187 22.429 88.163 22.5483C88.4073 22.6648 88.609 22.8153 88.7681 23C88.9272 23.1847 89.0479 23.3764 89.1303 23.5753H89.1729V20.2727H91.2567V29H89.1942V27.9389H89.1303C89.0423 28.1406 88.9173 28.3295 88.7553 28.5057C88.5934 28.6818 88.3903 28.8239 88.146 28.9318C87.9045 29.0398 87.619 29.0938 87.2894 29.0938ZM88.0138 27.4702C88.2667 27.4702 88.4826 27.3991 88.6616 27.2571C88.8406 27.1122 88.9783 26.9091 89.0749 26.6477C89.1715 26.3864 89.2198 26.0795 89.2198 25.7273C89.2198 25.3693 89.1715 25.0611 89.0749 24.8026C88.9812 24.544 88.8434 24.3452 88.6616 24.206C88.4826 24.0668 88.2667 23.9972 88.0138 23.9972C87.7553 23.9972 87.5366 24.0682 87.3576 24.2102C87.1786 24.3523 87.0423 24.5526 86.9485 24.8111C86.8576 25.0696 86.8121 25.375 86.8121 25.7273C86.8121 26.0795 86.859 26.3864 86.9528 26.6477C87.0465 26.9091 87.1815 27.1122 87.3576 27.2571C87.5366 27.3991 87.7553 27.4702 88.0138 27.4702ZM92.5746 29V22.4545H94.6584V29H92.5746ZM93.6186 21.6918C93.326 21.6918 93.0746 21.5952 92.8643 21.402C92.6541 21.206 92.549 20.9702 92.549 20.6946C92.549 20.4219 92.6541 20.1889 92.8643 19.9957C93.0746 19.7997 93.326 19.7017 93.6186 19.7017C93.9141 19.7017 94.1655 19.7997 94.3729 19.9957C94.5831 20.1889 94.6882 20.4219 94.6882 20.6946C94.6882 20.9702 94.5831 21.206 94.3729 21.402C94.1655 21.5952 93.9141 21.6918 93.6186 21.6918ZM98.0685 25.267V29H95.9847V22.4545H97.9663V23.6562H98.0387C98.1836 23.2557 98.4308 22.9418 98.7802 22.7145C99.1296 22.4844 99.5458 22.3693 100.029 22.3693C100.489 22.3693 100.888 22.473 101.226 22.6804C101.567 22.8849 101.831 23.1719 102.019 23.5412C102.209 23.9077 102.303 24.3366 102.3 24.8281V29H100.216V25.2372C100.219 24.8736 100.127 24.5895 99.9393 24.3849C99.7546 24.1804 99.4975 24.0781 99.168 24.0781C98.9492 24.0781 98.756 24.1264 98.5884 24.223C98.4237 24.3168 98.2958 24.4517 98.2049 24.6278C98.1168 24.804 98.0714 25.017 98.0685 25.267ZM106.641 31.5909C106.019 31.5909 105.487 31.5043 105.043 31.331C104.6 31.1577 104.252 30.9205 103.999 30.6193C103.746 30.3182 103.594 29.9773 103.543 29.5966L105.516 29.4858C105.553 29.6193 105.621 29.7358 105.721 29.8352C105.823 29.9347 105.955 30.0114 106.117 30.0653C106.282 30.1193 106.475 30.1463 106.697 30.1463C107.046 30.1463 107.335 30.0611 107.562 29.8906C107.792 29.723 107.907 29.429 107.907 29.0085V27.858H107.835C107.752 28.0597 107.627 28.2401 107.46 28.3991C107.292 28.5582 107.083 28.6832 106.833 28.7741C106.586 28.8651 106.302 28.9105 105.981 28.9105C105.504 28.9105 105.066 28.7997 104.668 28.5781C104.273 28.3537 103.957 28.0071 103.718 27.5384C103.482 27.0668 103.364 26.4602 103.364 25.7188C103.364 24.9545 103.487 24.3253 103.731 23.831C103.975 23.3338 104.295 22.9659 104.69 22.7273C105.087 22.4886 105.515 22.3693 105.972 22.3693C106.316 22.3693 106.61 22.429 106.854 22.5483C107.102 22.6648 107.305 22.8153 107.464 23C107.623 23.1847 107.744 23.3764 107.826 23.5753H107.886V22.4545H109.961V29.0256C109.961 29.5795 109.822 30.0469 109.543 30.4276C109.265 30.8082 108.876 31.0966 108.376 31.2926C107.876 31.4915 107.298 31.5909 106.641 31.5909ZM106.705 27.3935C106.958 27.3935 107.174 27.3267 107.353 27.1932C107.532 27.0597 107.67 26.8679 107.766 26.6179C107.863 26.3679 107.911 26.0682 107.911 25.7188C107.911 25.3636 107.863 25.0582 107.766 24.8026C107.673 24.544 107.535 24.3452 107.353 24.206C107.174 24.0668 106.958 23.9972 106.705 23.9972C106.447 23.9972 106.228 24.0682 106.049 24.2102C105.87 24.3523 105.734 24.5526 105.64 24.8111C105.549 25.0668 105.504 25.3693 105.504 25.7188C105.504 26.0682 105.55 26.3679 105.644 26.6179C105.738 26.8679 105.873 27.0597 106.049 27.1932C106.228 27.3267 106.447 27.3935 106.705 27.3935Z" fill="black"/>
</svg>
