<svg width="137" height="49" viewBox="0 0 137 49" fill="none" xmlns="http://www.w3.org/2000/svg">
<path d="M108.114 13H28.8864C27.8446 13 27 14.1442 27 15.5556V33.4444C27 34.8558 27.8446 36 28.8864 36H108.114C109.155 36 110 34.8558 110 33.4444V15.5556C110 14.1442 109.155 13 108.114 13Z" fill="#C4C4C4"/>
<path d="M43.6605 29V20.2727H45.7699V23.7756H49.2088V20.2727H51.3139V29H49.2088V25.4929H45.7699V29H43.6605ZM55.6967 29.1236C55.0121 29.1236 54.4212 28.9886 53.924 28.7188C53.4297 28.446 53.049 28.0582 52.782 27.5554C52.5178 27.0497 52.3857 26.4489 52.3857 25.7528C52.3857 25.0767 52.5192 24.4858 52.7862 23.9801C53.0533 23.4716 53.4297 23.0767 53.9155 22.7955C54.4013 22.5114 54.9737 22.3693 55.6328 22.3693C56.0987 22.3693 56.5249 22.4418 56.9112 22.5866C57.2976 22.7315 57.6314 22.946 57.9126 23.2301C58.1939 23.5142 58.4126 23.8651 58.5689 24.2827C58.7251 24.6974 58.8033 25.1733 58.8033 25.7102V26.2301H53.1143V25.0199H56.8643C56.8615 24.7983 56.8089 24.6009 56.7067 24.4276C56.6044 24.2543 56.4638 24.1193 56.2848 24.0227C56.1087 23.9233 55.9055 23.8736 55.6754 23.8736C55.4425 23.8736 55.2337 23.9261 55.049 24.0312C54.8643 24.1335 54.718 24.2741 54.6101 24.4531C54.5021 24.6293 54.4453 24.8295 54.4396 25.054V26.2855C54.4396 26.5526 54.4922 26.7869 54.5973 26.9886C54.7024 27.1875 54.8516 27.3423 55.0447 27.4531C55.2379 27.5639 55.468 27.6193 55.7351 27.6193C55.9197 27.6193 56.0874 27.5937 56.2379 27.5426C56.3885 27.4915 56.5178 27.4162 56.6257 27.3168C56.7337 27.2173 56.8146 27.0952 56.8686 26.9503L58.782 27.0057C58.7024 27.4347 58.5277 27.8082 58.2578 28.1264C57.9908 28.4418 57.6399 28.6875 57.2053 28.8636C56.7706 29.0369 56.2678 29.1236 55.6967 29.1236ZM61.7127 29.1108C61.2951 29.1108 60.9244 29.0412 60.6005 28.902C60.2795 28.7599 60.0252 28.5469 59.8377 28.2628C59.6531 27.9759 59.5607 27.6165 59.5607 27.1847C59.5607 26.821 59.6246 26.5142 59.7525 26.2642C59.8803 26.0142 60.0565 25.8111 60.2809 25.6548C60.5053 25.4986 60.7638 25.3807 61.0565 25.3011C61.3491 25.2187 61.6616 25.1634 61.994 25.1349C62.3661 25.1009 62.6658 25.0653 62.8931 25.0284C63.1204 24.9886 63.2852 24.9332 63.3874 24.8622C63.4925 24.7884 63.5451 24.6847 63.5451 24.5511V24.5298C63.5451 24.3111 63.4698 24.142 63.3192 24.0227C63.1687 23.9034 62.9656 23.8438 62.7099 23.8438C62.4343 23.8438 62.2127 23.9034 62.0451 24.0227C61.8775 24.142 61.771 24.3068 61.7255 24.517L59.8036 24.4489C59.8604 24.0511 60.0067 23.696 60.2425 23.3835C60.4812 23.0682 60.8079 22.821 61.2227 22.642C61.6403 22.4602 62.1417 22.3693 62.7269 22.3693C63.1445 22.3693 63.5295 22.419 63.8817 22.5185C64.234 22.6151 64.5408 22.7571 64.8022 22.9446C65.0636 23.1293 65.2653 23.3565 65.4073 23.6264C65.5522 23.8963 65.6246 24.2045 65.6246 24.5511V29H63.6644V28.0881H63.6133C63.4968 28.3097 63.3477 28.4972 63.1658 28.6506C62.9869 28.804 62.7752 28.919 62.5309 28.9957C62.2894 29.0724 62.0167 29.1108 61.7127 29.1108ZM62.3562 27.7472C62.5806 27.7472 62.7823 27.7017 62.9613 27.6108C63.1431 27.5199 63.288 27.3949 63.396 27.2358C63.5039 27.0739 63.5579 26.8864 63.5579 26.6733V26.0511C63.4982 26.0824 63.4258 26.1108 63.3406 26.1364C63.2582 26.1619 63.1673 26.1861 63.0678 26.2088C62.9684 26.2315 62.8661 26.2514 62.761 26.2685C62.6559 26.2855 62.555 26.3011 62.4585 26.3153C62.2624 26.3466 62.0948 26.3949 61.9556 26.4602C61.8192 26.5256 61.7141 26.6108 61.6403 26.7159C61.5692 26.8182 61.5337 26.9403 61.5337 27.0824C61.5337 27.2983 61.6104 27.4631 61.7638 27.5767C61.9201 27.6903 62.1175 27.7472 62.3562 27.7472ZM69.2894 29.0938C68.8065 29.0938 68.3675 28.9688 67.9727 28.7188C67.5778 28.4688 67.2624 28.0938 67.0266 27.5938C66.7908 27.0938 66.6729 26.473 66.6729 25.7315C66.6729 24.9616 66.7951 24.3281 67.0394 23.831C67.2837 23.3338 67.6033 22.9659 67.9982 22.7273C68.396 22.4886 68.8235 22.3693 69.2809 22.3693C69.6246 22.3693 69.9187 22.429 70.163 22.5483C70.4073 22.6648 70.609 22.8153 70.7681 23C70.9272 23.1847 71.0479 23.3764 71.1303 23.5753H71.1729V20.2727H73.2567V29H71.1942V27.9389H71.1303C71.0423 28.1406 70.9173 28.3295 70.7553 28.5057C70.5934 28.6818 70.3903 28.8239 70.146 28.9318C69.9045 29.0398 69.619 29.0938 69.2894 29.0938ZM70.0138 27.4702C70.2667 27.4702 70.4826 27.3991 70.6616 27.2571C70.8406 27.1122 70.9783 26.9091 71.0749 26.6477C71.1715 26.3864 71.2198 26.0795 71.2198 25.7273C71.2198 25.3693 71.1715 25.0611 71.0749 24.8026C70.9812 24.544 70.8434 24.3452 70.6616 24.206C70.4826 24.0668 70.2667 23.9972 70.0138 23.9972C69.7553 23.9972 69.5366 24.0682 69.3576 24.2102C69.1786 24.3523 69.0423 24.5526 68.9485 24.8111C68.8576 25.0696 68.8121 25.375 68.8121 25.7273C68.8121 26.0795 68.859 26.3864 68.9528 26.6477C69.0465 26.9091 69.1815 27.1122 69.3576 27.2571C69.5366 27.3991 69.7553 27.4702 70.0138 27.4702ZM74.5746 29V22.4545H76.6584V29H74.5746ZM75.6186 21.6918C75.326 21.6918 75.0746 21.5952 74.8643 21.402C74.6541 21.206 74.549 20.9702 74.549 20.6946C74.549 20.4219 74.6541 20.1889 74.8643 19.9957C75.0746 19.7997 75.326 19.7017 75.6186 19.7017C75.9141 19.7017 76.1655 19.7997 76.3729 19.9957C76.5831 20.1889 76.6882 20.4219 76.6882 20.6946C76.6882 20.9702 76.5831 21.206 76.3729 21.402C76.1655 21.5952 75.9141 21.6918 75.6186 21.6918ZM80.0685 25.267V29H77.9847V22.4545H79.9663V23.6562H80.0387C80.1836 23.2557 80.4308 22.9418 80.7802 22.7145C81.1296 22.4844 81.5458 22.3693 82.0288 22.3693C82.489 22.3693 82.8881 22.473 83.2262 22.6804C83.5671 22.8849 83.8313 23.1719 84.0188 23.5412C84.2092 23.9077 84.3029 24.3366 84.3001 24.8281V29H82.2163V25.2372C82.2191 24.8736 82.1268 24.5895 81.9393 24.3849C81.7546 24.1804 81.4975 24.0781 81.168 24.0781C80.9492 24.0781 80.756 24.1264 80.5884 24.223C80.4237 24.3168 80.2958 24.4517 80.2049 24.6278C80.1168 24.804 80.0714 25.017 80.0685 25.267ZM88.6413 31.5909C88.0192 31.5909 87.4865 31.5043 87.0433 31.331C86.6001 31.1577 86.2521 30.9205 85.9993 30.6193C85.7464 30.3182 85.5945 29.9773 85.5433 29.5966L87.5163 29.4858C87.5533 29.6193 87.6214 29.7358 87.7209 29.8352C87.8232 29.9347 87.9553 30.0114 88.1172 30.0653C88.282 30.1193 88.4751 30.1463 88.6967 30.1463C89.0462 30.1463 89.3345 30.0611 89.5618 29.8906C89.7919 29.723 89.907 29.429 89.907 29.0085V27.858H89.8345C89.7521 28.0597 89.6271 28.2401 89.4595 28.3991C89.2919 28.5582 89.0831 28.6832 88.8331 28.7741C88.5859 28.8651 88.3018 28.9105 87.9808 28.9105C87.5036 28.9105 87.0661 28.7997 86.6683 28.5781C86.2734 28.3537 85.9567 28.0071 85.718 27.5384C85.4822 27.0668 85.3643 26.4602 85.3643 25.7188C85.3643 24.9545 85.4865 24.3253 85.7308 23.831C85.9751 23.3338 86.2947 22.9659 86.6896 22.7273C87.0874 22.4886 87.5149 22.3693 87.9723 22.3693C88.3161 22.3693 88.6101 22.429 88.8544 22.5483C89.1016 22.6648 89.3047 22.8153 89.4638 23C89.6229 23.1847 89.7436 23.3764 89.826 23.5753H89.8857V22.4545H91.9609V29.0256C91.9609 29.5795 91.8217 30.0469 91.5433 30.4276C91.2649 30.8082 90.8757 31.0966 90.3757 31.2926C89.8757 31.4915 89.2976 31.5909 88.6413 31.5909ZM88.7053 27.3935C88.9581 27.3935 89.174 27.3267 89.353 27.1932C89.532 27.0597 89.6697 26.8679 89.7663 26.6179C89.8629 26.3679 89.9112 26.0682 89.9112 25.7188C89.9112 25.3636 89.8629 25.0582 89.7663 24.8026C89.6726 24.544 89.5348 24.3452 89.353 24.206C89.174 24.0668 88.9581 23.9972 88.7053 23.9972C88.4467 23.9972 88.228 24.0682 88.049 24.2102C87.87 24.3523 87.7337 24.5526 87.6399 24.8111C87.549 25.0668 87.5036 25.3693 87.5036 25.7188C87.5036 26.0682 87.5504 26.3679 87.6442 26.6179C87.7379 26.8679 87.8729 27.0597 88.049 27.1932C88.228 27.3267 88.4467 27.3935 88.7053 27.3935Z" fill="black"/>
</svg>
