<svg width="137" height="49" viewBox="0 0 137 49" fill="none" xmlns="http://www.w3.org/2000/svg">
<path d="M27 35H110" stroke="#C4C4C4" stroke-width="2"/>
<path d="M27 14H110" stroke="#C4C4C4" stroke-width="2"/>
<path d="M27.6605 29V20.2727H29.7699V23.7756H33.2088V20.2727H35.3139V29H33.2088V25.4929H29.7699V29H27.6605ZM39.6967 29.1236C39.0121 29.1236 38.4212 28.9886 37.924 28.7188C37.4297 28.446 37.049 28.0582 36.782 27.5554C36.5178 27.0497 36.3857 26.4489 36.3857 25.7528C36.3857 25.0767 36.5192 24.4858 36.7862 23.9801C37.0533 23.4716 37.4297 23.0767 37.9155 22.7955C38.4013 22.5114 38.9737 22.3693 39.6328 22.3693C40.0987 22.3693 40.5249 22.4418 40.9112 22.5866C41.2976 22.7315 41.6314 22.946 41.9126 23.2301C42.1939 23.5142 42.4126 23.8651 42.5689 24.2827C42.7251 24.6974 42.8033 25.1733 42.8033 25.7102V26.2301H37.1143V25.0199H40.8643C40.8615 24.7983 40.8089 24.6009 40.7067 24.4276C40.6044 24.2543 40.4638 24.1193 40.2848 24.0227C40.1087 23.9233 39.9055 23.8736 39.6754 23.8736C39.4425 23.8736 39.2337 23.9261 39.049 24.0312C38.8643 24.1335 38.718 24.2741 38.6101 24.4531C38.5021 24.6293 38.4453 24.8295 38.4396 25.054V26.2855C38.4396 26.5526 38.4922 26.7869 38.5973 26.9886C38.7024 27.1875 38.8516 27.3423 39.0447 27.4531C39.2379 27.5639 39.468 27.6193 39.7351 27.6193C39.9197 27.6193 40.0874 27.5937 40.2379 27.5426C40.3885 27.4915 40.5178 27.4162 40.6257 27.3168C40.7337 27.2173 40.8146 27.0952 40.8686 26.9503L42.782 27.0057C42.7024 27.4347 42.5277 27.8082 42.2578 28.1264C41.9908 28.4418 41.6399 28.6875 41.2053 28.8636C40.7706 29.0369 40.2678 29.1236 39.6967 29.1236ZM45.7127 29.1108C45.2951 29.1108 44.9244 29.0412 44.6005 28.902C44.2795 28.7599 44.0252 28.5469 43.8377 28.2628C43.6531 27.9759 43.5607 27.6165 43.5607 27.1847C43.5607 26.821 43.6246 26.5142 43.7525 26.2642C43.8803 26.0142 44.0565 25.8111 44.2809 25.6548C44.5053 25.4986 44.7638 25.3807 45.0565 25.3011C45.3491 25.2187 45.6616 25.1634 45.994 25.1349C46.3661 25.1009 46.6658 25.0653 46.8931 25.0284C47.1204 24.9886 47.2852 24.9332 47.3874 24.8622C47.4925 24.7884 47.5451 24.6847 47.5451 24.5511V24.5298C47.5451 24.3111 47.4698 24.142 47.3192 24.0227C47.1687 23.9034 46.9656 23.8438 46.7099 23.8438C46.4343 23.8438 46.2127 23.9034 46.0451 24.0227C45.8775 24.142 45.771 24.3068 45.7255 24.517L43.8036 24.4489C43.8604 24.0511 44.0067 23.696 44.2425 23.3835C44.4812 23.0682 44.8079 22.821 45.2227 22.642C45.6403 22.4602 46.1417 22.3693 46.7269 22.3693C47.1445 22.3693 47.5295 22.419 47.8817 22.5185C48.234 22.6151 48.5408 22.7571 48.8022 22.9446C49.0636 23.1293 49.2653 23.3565 49.4073 23.6264C49.5522 23.8963 49.6246 24.2045 49.6246 24.5511V29H47.6644V28.0881H47.6133C47.4968 28.3097 47.3477 28.4972 47.1658 28.6506C46.9869 28.804 46.7752 28.919 46.5309 28.9957C46.2894 29.0724 46.0167 29.1108 45.7127 29.1108ZM46.3562 27.7472C46.5806 27.7472 46.7823 27.7017 46.9613 27.6108C47.1431 27.5199 47.288 27.3949 47.396 27.2358C47.5039 27.0739 47.5579 26.8864 47.5579 26.6733V26.0511C47.4982 26.0824 47.4258 26.1108 47.3406 26.1364C47.2582 26.1619 47.1673 26.1861 47.0678 26.2088C46.9684 26.2315 46.8661 26.2514 46.761 26.2685C46.6559 26.2855 46.555 26.3011 46.4585 26.3153C46.2624 26.3466 46.0948 26.3949 45.9556 26.4602C45.8192 26.5256 45.7141 26.6108 45.6403 26.7159C45.5692 26.8182 45.5337 26.9403 45.5337 27.0824C45.5337 27.2983 45.6104 27.4631 45.7638 27.5767C45.9201 27.6903 46.1175 27.7472 46.3562 27.7472ZM53.2894 29.0938C52.8065 29.0938 52.3675 28.9688 51.9727 28.7188C51.5778 28.4688 51.2624 28.0938 51.0266 27.5938C50.7908 27.0938 50.6729 26.473 50.6729 25.7315C50.6729 24.9616 50.7951 24.3281 51.0394 23.831C51.2837 23.3338 51.6033 22.9659 51.9982 22.7273C52.396 22.4886 52.8235 22.3693 53.2809 22.3693C53.6246 22.3693 53.9187 22.429 54.163 22.5483C54.4073 22.6648 54.609 22.8153 54.7681 23C54.9272 23.1847 55.0479 23.3764 55.1303 23.5753H55.1729V20.2727H57.2567V29H55.1942V27.9389H55.1303C55.0423 28.1406 54.9173 28.3295 54.7553 28.5057C54.5934 28.6818 54.3903 28.8239 54.146 28.9318C53.9045 29.0398 53.619 29.0938 53.2894 29.0938ZM54.0138 27.4702C54.2667 27.4702 54.4826 27.3991 54.6616 27.2571C54.8406 27.1122 54.9783 26.9091 55.0749 26.6477C55.1715 26.3864 55.2198 26.0795 55.2198 25.7273C55.2198 25.3693 55.1715 25.0611 55.0749 24.8026C54.9812 24.544 54.8434 24.3452 54.6616 24.206C54.4826 24.0668 54.2667 23.9972 54.0138 23.9972C53.7553 23.9972 53.5366 24.0682 53.3576 24.2102C53.1786 24.3523 53.0423 24.5526 52.9485 24.8111C52.8576 25.0696 52.8121 25.375 52.8121 25.7273C52.8121 26.0795 52.859 26.3864 52.9528 26.6477C53.0465 26.9091 53.1815 27.1122 53.3576 27.2571C53.5366 27.3991 53.7553 27.4702 54.0138 27.4702ZM58.5746 29V22.4545H60.6584V29H58.5746ZM59.6186 21.6918C59.326 21.6918 59.0746 21.5952 58.8643 21.402C58.6541 21.206 58.549 20.9702 58.549 20.6946C58.549 20.4219 58.6541 20.1889 58.8643 19.9957C59.0746 19.7997 59.326 19.7017 59.6186 19.7017C59.9141 19.7017 60.1655 19.7997 60.3729 19.9957C60.5831 20.1889 60.6882 20.4219 60.6882 20.6946C60.6882 20.9702 60.5831 21.206 60.3729 21.402C60.1655 21.5952 59.9141 21.6918 59.6186 21.6918ZM64.0685 25.267V29H61.9847V22.4545H63.9663V23.6562H64.0387C64.1836 23.2557 64.4308 22.9418 64.7802 22.7145C65.1296 22.4844 65.5458 22.3693 66.0288 22.3693C66.489 22.3693 66.8881 22.473 67.2262 22.6804C67.5671 22.8849 67.8313 23.1719 68.0188 23.5412C68.2092 23.9077 68.3029 24.3366 68.3001 24.8281V29H66.2163V25.2372C66.2191 24.8736 66.1268 24.5895 65.9393 24.3849C65.7546 24.1804 65.4975 24.0781 65.168 24.0781C64.9492 24.0781 64.756 24.1264 64.5884 24.223C64.4237 24.3168 64.2958 24.4517 64.2049 24.6278C64.1168 24.804 64.0714 25.017 64.0685 25.267ZM72.6413 31.5909C72.0192 31.5909 71.4865 31.5043 71.0433 31.331C70.6001 31.1577 70.2521 30.9205 69.9993 30.6193C69.7464 30.3182 69.5945 29.9773 69.5433 29.5966L71.5163 29.4858C71.5533 29.6193 71.6214 29.7358 71.7209 29.8352C71.8232 29.9347 71.9553 30.0114 72.1172 30.0653C72.282 30.1193 72.4751 30.1463 72.6967 30.1463C73.0462 30.1463 73.3345 30.0611 73.5618 29.8906C73.7919 29.723 73.907 29.429 73.907 29.0085V27.858H73.8345C73.7521 28.0597 73.6271 28.2401 73.4595 28.3991C73.2919 28.5582 73.0831 28.6832 72.8331 28.7741C72.5859 28.8651 72.3018 28.9105 71.9808 28.9105C71.5036 28.9105 71.0661 28.7997 70.6683 28.5781C70.2734 28.3537 69.9567 28.0071 69.718 27.5384C69.4822 27.0668 69.3643 26.4602 69.3643 25.7188C69.3643 24.9545 69.4865 24.3253 69.7308 23.831C69.9751 23.3338 70.2947 22.9659 70.6896 22.7273C71.0874 22.4886 71.5149 22.3693 71.9723 22.3693C72.3161 22.3693 72.6101 22.429 72.8544 22.5483C73.1016 22.6648 73.3047 22.8153 73.4638 23C73.6229 23.1847 73.7436 23.3764 73.826 23.5753H73.8857V22.4545H75.9609V29.0256C75.9609 29.5795 75.8217 30.0469 75.5433 30.4276C75.2649 30.8082 74.8757 31.0966 74.3757 31.2926C73.8757 31.4915 73.2976 31.5909 72.6413 31.5909ZM72.7053 27.3935C72.9581 27.3935 73.174 27.3267 73.353 27.1932C73.532 27.0597 73.6697 26.8679 73.7663 26.6179C73.8629 26.3679 73.9112 26.0682 73.9112 25.7188C73.9112 25.3636 73.8629 25.0582 73.7663 24.8026C73.6726 24.544 73.5348 24.3452 73.353 24.206C73.174 24.0668 72.9581 23.9972 72.7053 23.9972C72.4467 23.9972 72.228 24.0682 72.049 24.2102C71.87 24.3523 71.7337 24.5526 71.6399 24.8111C71.549 25.0668 71.5036 25.3693 71.5036 25.7188C71.5036 26.0682 71.5504 26.3679 71.6442 26.6179C71.7379 26.8679 71.8729 27.0597 72.049 27.1932C72.228 27.3267 72.4467 27.3935 72.7053 27.3935Z" fill="black"/>
</svg>
