<svg xmlns="http://www.w3.org/2000/svg" xmlns:xlink="http://www.w3.org/1999/xlink" version="1.1" width="1000" height="1000" viewBox="0 0 1000 1000" xml:space="preserve">
<desc>Created with Fabric.js 3.5.0</desc>
<defs>
</defs>
<rect x="0" y="0" width="100%" height="100%" fill="#ffffff"/>
<g transform="matrix(1.3174 0 0 1.3174 499.9974 499.9977)" id="769804">
<g style="" vector-effect="non-scaling-stroke">
		<g transform="matrix(1 0 0 1 -273.1662 59.2285)">
<path style="stroke: none; stroke-width: 1; stroke-dasharray: none; stroke-linecap: butt; stroke-dashoffset: 0; stroke-linejoin: miter; stroke-miterlimit: 4; is-custom-font: none; font-file-url: none; fill: rgb(242,242,242); fill-rule: nonzero; opacity: 1;" transform=" translate(-326.8338, -509.2285)" d="M 386.57224 563.70393 a 4.75474 4.75474 0 0 1 -6.35718 -6.27512 c -0.07312 -0.48591 -0.12571 -0.83481 -0.19884 -1.32072 q -0.11935 -0.11872 -0.23932 -0.237 c -8.06365 -7.94283 -21.72414 -2.156 -21.69794 9.1626 c 0.02316 10.04585 -0.91852 20.51209 1.74983 30.029 a 37.77438 37.77438 0 0 0 5.62114 11.731 A 151.44464 151.44464 0 0 1 328.48537 554.07 a 146.17408 146.17408 0 0 1 -5.4512 -15.39549 q -1.87428 -6.4329 -3.17513 -13.00268 a 153.19909 153.19909 0 0 1 2.99513 -71.6232 a 40.77066 40.77066 0 0 0 8.86168 -22.7703 a 31.09989 31.09989 0 0 0 -0.66731 -8.93191 c -0.71988 0.41819 -1.468 0.80414 -2.20872 1.17233 c -0.23208 0.11158 -0.47655 0.22846 -0.70859 0.34014 l -0.08781 0.04141 a 4.71087 4.71087 0 0 1 -6.52909 -5.58948 q 0.2396 -0.81321 0.48 -1.62608 c 0.23858 -0.8331 0.49482 -1.65886 0.73334 -2.49182 a 2.34448 2.34448 0 0 0 0.084 -0.25521 c 0.277 -0.9518 0.55906 -1.891 0.83608 -2.84278 a 13.62207 13.62207 0 0 0 -5.785 -2.261 c -7.165 -0.96573 -14.13048 4.68785 -16.11248 11.63223 c -1.99447 6.94947 0.27158 14.58274 4.43848 20.48273 c 3.56355 5.05222 8.39465 9.032 13.45863 12.621 c -0.14523 0.53009 -0.30812 1.05284 -0.45325 1.58288 a 154.18839 154.18839 0 0 0 -5.01794 29.72964 a 64.09769 64.09769 0 0 0 -15.01062 -25.99425 c -6.78672 -6.7405 -15.99073 -10.95964 -24.51449 -15.67656 c -10.2384 -5.66572 -22.43421 3.771 -19.12976 14.99613 q 0.048 0.163 0.09676 0.32561 q 1.53587 0.18177 3.05519 0.47154 a 6.44948 6.44948 0 0 1 2.1264 11.83187 l -0.11351 0.06945 a 64.17223 64.17223 0 0 0 5.26036 8.20051 a 66.07238 66.07238 0 0 0 46.32118 25.52262 c 0.59133 0.04619 1.17024 0.09757 1.75637 0.13133 a 157.38092 157.38092 0 0 0 7.55606 40.0508 a 149.26937 149.26937 0 0 0 9.39329 22.19615 l -0.14707 -0.24656 a 39.44354 39.44354 0 0 0 -21.20583 -15.82224 c -12.843 -3.85833 -27.55918 -1.1055 -40.5118 -3.108 c -6.235 -0.964 -10.95624 5.622 -7.68408 11.0162 q 0.07833 0.12916 0.15738 0.258 a 43.32944 43.32944 0 0 1 5.38518 0.28676 q 1.53593 0.18192 3.05519 0.47154 a 6.44955 6.44955 0 0 1 2.12644 11.832 l -0.11365 0.06939 c -0.08214 0.049 -0.15186 0.09289 -0.2339 0.14189 a 64.22762 64.22762 0 0 0 18.03343 12.51319 A 66.131 66.131 0 0 0 342.2 585.343 l 0.01252 -0.00523 a 157.33608 157.33608 0 0 0 21.649 24.39316 l 34.83637 -14.55838 c -0.03681 -0.4393 -0.09148 -0.88584 -0.14082 -1.3199 a 42.89759 42.89759 0 0 1 -9.87941 3.45414 c 1.25926 -4.25172 2.508 -8.52835 3.7673 -12.78 a 2.34586 2.34586 0 0 0 0.08407 -0.25511 c 0.6327 -2.171 1.28311 -4.3349 1.91581 -6.50594 l -0.00013 -0.0023 a 62.83649 62.83649 0 0 0 -7.871 -14.05928 Z m -72.6876 -61.80369 l 0.008 -0.03241 l 0.00243 0.05736 Z m 21.35349 72.78525 l -0.58143 -0.54891 c -0.191 -0.49221 -0.3945 -0.97919 -0.61573 -1.47335 c -0.05745 -0.13748 -0.13977 -0.26433 -0.19718 -0.4017 c 0.47236 0.81458 0.93234 1.63446 1.41723 2.44381 Z" stroke-linecap="round"/>
</g>
		<g transform="matrix(1 0 0 1 161.455 -194.3908)">
<path style="stroke: none; stroke-width: 1; stroke-dasharray: none; stroke-linecap: butt; stroke-dashoffset: 0; stroke-linejoin: miter; stroke-miterlimit: 4; is-custom-font: none; font-file-url: none; fill: rgb(242,242,242); fill-rule: nonzero; opacity: 1;" transform=" translate(-761.4549, -255.6092)" d="M 706.25 324.30278 a 62.83608 62.83608 0 0 0 -1.84118 16.007 l 0.00076 0.00217 c 1.42091 1.75919 2.85539 3.50492 4.2763 5.26411 a 2.34417 2.34417 0 0 0 0.17593 0.203 c 2.80131 3.43726 5.60251 6.90168 8.40382 10.339 a 42.89815 42.89815 0 0 1 -10.44733 0.62238 c 0.12185 0.41952 0.24359 0.85261 0.379 1.27213 h 37.756 a 157.33574 157.33574 0 0 0 10.56907 -30.85448 h 0.01357 a 66.131 66.131 0 0 0 47.95979 -21.04332 a 64.22737 64.22737 0 0 0 11.81393 -18.49907 c -0.09459 -0.01358 -0.17582 -0.02715 -0.27052 -0.04073 l -0.13162 -0.0202 a 6.44954 6.44954 0 0 1 -2.60029 -11.73693 q 1.289 -0.85245 2.63711 -1.61313 a 43.325 43.325 0 0 1 4.85817 -2.34107 q 0.0233 -0.14938 0.04572 -0.29876 c 0.93916 -6.23879 -5.95643 -10.495 -11.33762 -7.20141 c -11.17885 6.84206 -25.81853 9.97655 -36.1806 18.48864 A 39.44361 39.44361 0 0 0 758.865 305.62767 l -0.04061 0.2842 a 149.27013 149.27013 0 0 0 0.10827 -24.10168 a 157.38053 157.38053 0 0 0 -8.47148 -39.86721 c 0.52779 -0.25717 1.04212 -0.5278 1.56991 -0.79842 a 66.07236 66.07236 0 0 0 32.89787 -41.41 a 64.17245 64.17245 0 0 0 1.69154 -9.59472 l -0.13151 -0.02031 a 6.44947 6.44947 0 0 1 -2.60029 -11.73683 q 1.289 -0.85244 2.6371 -1.61312 q -0.01774 -0.16893 -0.03627 -0.33775 c -1.2794 -11.63127 -16.17081 -15.63564 -23.43283 -6.46022 c -6.04581 7.63885 -12.91121 15.0807 -16.574 23.91685 a 64.09761 64.09761 0 0 0 -3.8267 29.77207 a 154.1888 154.1888 0 0 0 -16.09338 -25.49577 c -0.33829 -0.43309 -0.69015 -0.85261 -1.02854 -1.2857 c 3.28848 -5.26412 6.21142 -10.799 7.55131 -16.83457 c 1.56969 -7.05046 0.71719 -14.96722 -3.8027 -20.61024 c -4.50642 -5.64312 -13.11321 -8.17369 -19.35178 -4.51988 a 13.622 13.622 0 0 0 -4.46581 4.3168 c 0.6226 0.77138 1.245 1.52919 1.86758 2.30056 a 2.34351 2.34351 0 0 0 0.17593 0.20308 c 0.54125 0.67658 1.09609 1.33968 1.63745 2.01636 q 0.53545 0.65713 1.06992 1.31524 a 4.71087 4.71087 0 0 1 -3.86895 7.6748 l -0.097 -0.00435 c -0.25716 -0.01357 -0.52779 -0.02715 -0.78495 -0.04061 c -0.82546 -0.05409 -1.66449 -0.12174 -2.49 -0.23 a 31.09981 31.09981 0 0 0 2.82836 8.49852 a 40.77074 40.77074 0 0 0 16.95642 17.59249 a 153.199 153.199 0 0 1 30.38076 64.92967 q 1.33985 6.55666 2.08413 13.22149 a 146.1742 146.1742 0 0 1 0.90669 16.30689 a 151.44452 151.44452 0 0 1 -13.77632 62.89974 a 37.77432 37.77432 0 0 0 0.66311 -12.99126 c -1.20762 -9.80985 -6.11217 -19.10364 -9.96439 -28.38157 c -4.34016 -10.45341 -19.17564 -10.52541 -23.553 -0.08753 q -0.06516 0.1554 -0.12945 0.31092 c 0.1199 0.47653 0.20591 0.81873 0.3258 1.29526 a 4.75475 4.75475 0 0 1 -3.44595 8.24114 Z m 43.23693 -85.0258 l -0.01987 -0.05386 l 0.01987 0.02682 Z m 8.34963 75.39057 c 0.13532 -0.93373 0.24359 -1.86757 0.36533 -2.8013 c 0 0.14888 -0.027 0.29766 -0.027 0.44666 c -0.01358 0.54126 -0.01358 1.06905 0 1.59684 l -0.32482 0.73066 Z" stroke-linecap="round"/>
</g>
		<g transform="matrix(1 0 0 1 10.4646 201.2809)">
<path style="stroke: none; stroke-width: 1; stroke-dasharray: none; stroke-linecap: butt; stroke-dashoffset: 0; stroke-linejoin: miter; stroke-miterlimit: 4; is-custom-font: none; font-file-url: none; fill: rgb(230,230,230); fill-rule: nonzero; opacity: 1;" transform=" translate(-610.4646, -651.2809)" d="M 668.21165 556.96021 h -115.51 a 6.1631 6.1631 0 0 0 -6.15377 6.16965 V 745.60165 H 674.3813 V 563.12986 A 6.16641 6.16641 0 0 0 668.21165 556.96021 Z M 610.84527 660.63845 a 13.70383 13.70383 0 0 1 -13.63985 -13.63975 V 625.95216 a 13.6398 13.6398 0 0 1 27.2796 0 V 646.9987 a 13.70365 13.70365 0 0 1 -13.63975 13.63975 Z" stroke-linecap="round"/>
</g>
		<g transform="matrix(1 0 0 1 10.4646 300.2884)">
<path style="stroke: none; stroke-width: 1; stroke-dasharray: none; stroke-linecap: butt; stroke-dashoffset: 0; stroke-linejoin: miter; stroke-miterlimit: 4; is-custom-font: none; font-file-url: none; fill: rgb(204,204,204); fill-rule: nonzero; opacity: 1;" transform=" translate(-610.4646, -750.2884)" d="M 546.15137 739.76511 V 757.37 a 3.44873 3.44873 0 0 0 3.44174 3.44164 h 121.743 A 3.459 3.459 0 0 0 674.7778 757.37 v -17.6049 Z" stroke-linecap="round"/>
</g>
		<g transform="matrix(1 0 0 1 12.6057 4.7911)">
<path style="stroke: none; stroke-width: 1; stroke-dasharray: none; stroke-linecap: butt; stroke-dashoffset: 0; stroke-linejoin: miter; stroke-miterlimit: 4; is-custom-font: none; font-file-url: none; fill: rgb(230,230,230); fill-rule: nonzero; opacity: 1;" transform=" translate(-612.6057, -454.791)" d="M 859.48585 272.19237 H 365.7256 a 16.02852 16.02852 0 0 0 -16.003 16.0029 V 621.38678 a 16.01831 16.01831 0 0 0 16.003 16.0029 H 859.48585 a 16.0183 16.0183 0 0 0 16.003 -16.0029 V 288.19527 A 16.02851 16.02851 0 0 0 859.48585 272.19237 Z" stroke-linecap="round"/>
</g>
		<g transform="matrix(1 0 0 1 12.6075 4.7815)">
<path style="stroke: none; stroke-width: 1; stroke-dasharray: none; stroke-linecap: butt; stroke-dashoffset: 0; stroke-linejoin: miter; stroke-miterlimit: 4; is-custom-font: none; font-file-url: none; fill: rgb(255,255,255); fill-rule: nonzero; opacity: 1;" transform=" translate(-612.6075, -454.7815)" d="M 855.36253 283.74652 h -485.51 a 8.58039 8.58039 0 0 0 -8.56 8.58 v 324.93 a 8.56973 8.56973 0 0 0 8.56 8.56 h 485.51 a 8.56969 8.56969 0 0 0 8.56 -8.56 v -324.93 A 8.58035 8.58035 0 0 0 855.36253 283.74652 Z" stroke-linecap="round"/>
</g>
		<g transform="matrix(1 0 0 1 -207.8013 139.8147)">
<path style="stroke: none; stroke-width: 1; stroke-dasharray: none; stroke-linecap: butt; stroke-dashoffset: 0; stroke-linejoin: miter; stroke-miterlimit: 4; is-custom-font: none; font-file-url: none; fill: rgb(79,80,213); fill-rule: nonzero; opacity: 1;" transform=" translate(-392.1987, -589.8148)" d="M 423.10488 607.1895 a 53.04951 53.04951 0 0 1 -3.34507 18.62906 H 369.85089 a 8.57312 8.57312 0 0 1 -8.55835 -8.55836 V 554.48709 a 52.71641 52.71641 0 0 1 8.43379 -0.67614 A 53.37521 53.37521 0 0 1 423.10488 607.1895 Z" stroke-linecap="round"/>
</g>
		<g transform="matrix(1 0 0 1 149.3617 -16.9697)">
<path style="stroke: none; stroke-width: 1; stroke-dasharray: none; stroke-linecap: butt; stroke-dashoffset: 0; stroke-linejoin: miter; stroke-miterlimit: 4; is-custom-font: none; font-file-url: none; fill: rgb(230,230,230); fill-rule: nonzero; opacity: 1;" transform=" translate(-749.3617, -433.0304)" d="M 863.92253 292.32653 v 282.82 a 179.02233 179.02233 0 0 1 -183.37 -291.4 h 174.81 A 8.58035 8.58035 0 0 1 863.92253 292.32653 Z" stroke-linecap="round"/>
</g>
		<g transform="matrix(1 0 0 1 3.8119 -123.287)">
<path style="stroke: none; stroke-width: 1; stroke-dasharray: none; stroke-linecap: butt; stroke-dashoffset: 0; stroke-linejoin: miter; stroke-miterlimit: 4; is-custom-font: none; font-file-url: none; fill: rgb(202,202,202); fill-rule: nonzero; opacity: 1;" transform=" translate(-603.8119, -326.7129)" d="M 830.95843 328.51954 h -454.293 a 1.807 1.807 0 0 1 0 -3.61318 h 454.293 a 1.807 1.807 0 0 1 0 3.61318 Z" stroke-linecap="round"/>
</g>
		<g transform="matrix(1 0 0 1 -192.4103 -145.1412)">
<ellipse style="stroke: none; stroke-width: 1; stroke-dasharray: none; stroke-linecap: butt; stroke-dashoffset: 0; stroke-linejoin: miter; stroke-miterlimit: 4; is-custom-font: none; font-file-url: none; fill: rgb(63,61,86); fill-rule: nonzero; opacity: 1;" cx="0" cy="0" rx="10.58751" ry="10.82345"/>
</g>
		<g transform="matrix(1 0 0 1 -155.8353 -145.1412)">
<ellipse style="stroke: none; stroke-width: 1; stroke-dasharray: none; stroke-linecap: butt; stroke-dashoffset: 0; stroke-linejoin: miter; stroke-miterlimit: 4; is-custom-font: none; font-file-url: none; fill: rgb(63,61,86); fill-rule: nonzero; opacity: 1;" cx="0" cy="0" rx="10.58751" ry="10.82345"/>
</g>
		<g transform="matrix(1 0 0 1 -119.2602 -145.1412)">
<ellipse style="stroke: none; stroke-width: 1; stroke-dasharray: none; stroke-linecap: butt; stroke-dashoffset: 0; stroke-linejoin: miter; stroke-miterlimit: 4; is-custom-font: none; font-file-url: none; fill: rgb(63,61,86); fill-rule: nonzero; opacity: 1;" cx="0" cy="0" rx="10.58751" ry="10.82345"/>
</g>
		<g transform="matrix(1 0 0 1 195.9466 -151.3147)">
<path style="stroke: none; stroke-width: 1; stroke-dasharray: none; stroke-linecap: butt; stroke-dashoffset: 0; stroke-linejoin: miter; stroke-miterlimit: 4; is-custom-font: none; font-file-url: none; fill: rgb(63,61,86); fill-rule: nonzero; opacity: 1;" transform=" translate(-795.9467, -298.6853)" d="M 808.93717 296.71805 h -25.981 a 1.96762 1.96762 0 0 0 0 3.93446 h 25.981 a 1.96762 1.96762 0 0 0 0 -3.93446 Z" stroke-linecap="round"/>
</g>
		<g transform="matrix(1 0 0 1 195.9466 -143.9304)">
<path style="stroke: none; stroke-width: 1; stroke-dasharray: none; stroke-linecap: butt; stroke-dashoffset: 0; stroke-linejoin: miter; stroke-miterlimit: 4; is-custom-font: none; font-file-url: none; fill: rgb(63,61,86); fill-rule: nonzero; opacity: 1;" transform=" translate(-795.9467, -306.0697)" d="M 808.93717 304.10242 h -25.981 a 1.96762 1.96762 0 0 0 0 3.93446 h 25.981 a 1.96762 1.96762 0 0 0 0 -3.93446 Z" stroke-linecap="round"/>
</g>
		<g transform="matrix(1 0 0 1 195.9466 -136.5557)">
<path style="stroke: none; stroke-width: 1; stroke-dasharray: none; stroke-linecap: butt; stroke-dashoffset: 0; stroke-linejoin: miter; stroke-miterlimit: 4; is-custom-font: none; font-file-url: none; fill: rgb(63,61,86); fill-rule: nonzero; opacity: 1;" transform=" translate(-795.9467, -313.4443)" d="M 808.93717 311.47709 h -25.981 a 1.96762 1.96762 0 0 0 0 3.93446 h 25.981 a 1.96762 1.96762 0 0 0 0 -3.93446 Z" stroke-linecap="round"/>
</g>
		<g transform="matrix(0.4285 -0.9035 0.9035 0.4285 -52.5118 -255.6259)">
<ellipse style="stroke: none; stroke-width: 1; stroke-dasharray: none; stroke-linecap: butt; stroke-dashoffset: 0; stroke-linejoin: miter; stroke-miterlimit: 4; is-custom-font: none; font-file-url: none; fill: rgb(47,46,65); fill-rule: nonzero; opacity: 1;" cx="0" cy="0" rx="6.76007" ry="21.53369"/>
</g>
		<g transform="matrix(0.7667 -0.642 0.642 0.7667 41.8035 -228.1644)">
<ellipse style="stroke: none; stroke-width: 1; stroke-dasharray: none; stroke-linecap: butt; stroke-dashoffset: 0; stroke-linejoin: miter; stroke-miterlimit: 4; is-custom-font: none; font-file-url: none; fill: rgb(47,46,65); fill-rule: nonzero; opacity: 1;" cx="0" cy="0" rx="6.76007" ry="21.53369"/>
</g>
		<g transform="matrix(1 0 0 1 -4.0036 -235.6423)">
<circle style="stroke: none; stroke-width: 1; stroke-dasharray: none; stroke-linecap: butt; stroke-dashoffset: 0; stroke-linejoin: miter; stroke-miterlimit: 4; is-custom-font: none; font-file-url: none; fill: rgb(47,46,65); fill-rule: nonzero; opacity: 1;" cx="0" cy="0" r="43.06732"/>
</g>
		<g transform="matrix(1 0 0 1 7.6833 -190.1218)">
<rect style="stroke: none; stroke-width: 1; stroke-dasharray: none; stroke-linecap: butt; stroke-dashoffset: 0; stroke-linejoin: miter; stroke-miterlimit: 4; is-custom-font: none; font-file-url: none; fill: rgb(47,46,65); fill-rule: nonzero; opacity: 1;" x="-6.54185" y="-11.72085" rx="0" ry="0" width="13.0837" height="23.4417"/>
</g>
		<g transform="matrix(1 0 0 1 -18.4841 -190.1218)">
<rect style="stroke: none; stroke-width: 1; stroke-dasharray: none; stroke-linecap: butt; stroke-dashoffset: 0; stroke-linejoin: miter; stroke-miterlimit: 4; is-custom-font: none; font-file-url: none; fill: rgb(47,46,65); fill-rule: nonzero; opacity: 1;" x="-6.54185" y="-11.72085" rx="0" ry="0" width="13.0837" height="23.4417"/>
</g>
		<g transform="matrix(1 0 0 1 3.322 -178.1284)">
<ellipse style="stroke: none; stroke-width: 1; stroke-dasharray: none; stroke-linecap: butt; stroke-dashoffset: 0; stroke-linejoin: miter; stroke-miterlimit: 4; is-custom-font: none; font-file-url: none; fill: rgb(47,46,65); fill-rule: nonzero; opacity: 1;" cx="0" cy="0" rx="10.90314" ry="4.08868"/>
</g>
		<g transform="matrix(1 0 0 1 -22.8455 -178.6735)">
<ellipse style="stroke: none; stroke-width: 1; stroke-dasharray: none; stroke-linecap: butt; stroke-dashoffset: 0; stroke-linejoin: miter; stroke-miterlimit: 4; is-custom-font: none; font-file-url: none; fill: rgb(47,46,65); fill-rule: nonzero; opacity: 1;" cx="0" cy="0" rx="10.90314" ry="4.08868"/>
</g>
		<g transform="matrix(1 0 0 1 13.511 -285.9451)">
<path style="stroke: none; stroke-width: 1; stroke-dasharray: none; stroke-linecap: butt; stroke-dashoffset: 0; stroke-linejoin: miter; stroke-miterlimit: 4; is-custom-font: none; font-file-url: none; fill: rgb(230,230,230); fill-rule: nonzero; opacity: 1;" transform=" translate(-613.511, -164.0549)" d="M 582.47354 160.22082 c 3.84558 -15.487 20.82055 -24.60077 37.91473 -20.35617 S 648.22256 160.105 644.377 175.592 s -16.604 15.537 -33.69812 11.29236 S 578.628 175.70785 582.47354 160.22082 Z" stroke-linecap="round"/>
</g>
		<g transform="matrix(1 0 0 1 -10.4423 -244.7299)">
<circle style="stroke: none; stroke-width: 1; stroke-dasharray: none; stroke-linecap: butt; stroke-dashoffset: 0; stroke-linejoin: miter; stroke-miterlimit: 4; is-custom-font: none; font-file-url: none; fill: rgb(255,255,255); fill-rule: nonzero; opacity: 1;" cx="0" cy="0" r="14.35864"/>
</g>
		<g transform="matrix(1 0 0 1 -11.3436 -238.8766)">
<circle style="stroke: none; stroke-width: 1; stroke-dasharray: none; stroke-linecap: butt; stroke-dashoffset: 0; stroke-linejoin: miter; stroke-miterlimit: 4; is-custom-font: none; font-file-url: none; fill: rgb(63,61,86); fill-rule: nonzero; opacity: 1;" cx="0" cy="0" r="4.78621"/>
</g>
		<g transform="matrix(1 0 0 1 -6.2791 -212.5043)">
<path style="stroke: none; stroke-width: 1; stroke-dasharray: none; stroke-linecap: butt; stroke-dashoffset: 0; stroke-linejoin: miter; stroke-miterlimit: 4; is-custom-font: none; font-file-url: none; fill: rgb(255,255,255); fill-rule: nonzero; opacity: 1;" transform=" translate(-593.7209, -237.4957)" d="M 607.80253 231.26654 c 0.94684 5.20123 -11.7394 14.10428 -16.94063 15.05112 a 9.57245 9.57245 0 0 1 -11.13208 -7.70325 h 0 l -0.00336 -0.01849 c -0.94177 -5.20215 3.08039 -7.043 8.28254 -7.98475 S 606.86082 226.06445 607.80253 231.26654 Z" stroke-linecap="round"/>
</g>
		<g transform="matrix(0.6094 -0.7928 0.7928 0.6094 154.9987 78.8355)">
<ellipse style="stroke: none; stroke-width: 1; stroke-dasharray: none; stroke-linecap: butt; stroke-dashoffset: 0; stroke-linejoin: miter; stroke-miterlimit: 4; is-custom-font: none; font-file-url: none; fill: rgb(47,46,65); fill-rule: nonzero; opacity: 1;" cx="0" cy="0" rx="21.53369" ry="6.76007"/>
</g>
		<g transform="matrix(1 0 0 1 199.8059 71.3576)">
<circle style="stroke: none; stroke-width: 1; stroke-dasharray: none; stroke-linecap: butt; stroke-dashoffset: 0; stroke-linejoin: miter; stroke-miterlimit: 4; is-custom-font: none; font-file-url: none; fill: rgb(47,46,65); fill-rule: nonzero; opacity: 1;" cx="0" cy="0" r="43.06735"/>
</g>
		<g transform="matrix(1 0 0 1 212.8897 116.8782)">
<rect style="stroke: none; stroke-width: 1; stroke-dasharray: none; stroke-linecap: butt; stroke-dashoffset: 0; stroke-linejoin: miter; stroke-miterlimit: 4; is-custom-font: none; font-file-url: none; fill: rgb(47,46,65); fill-rule: nonzero; opacity: 1;" x="-6.54185" y="-11.72085" rx="0" ry="0" width="13.0837" height="23.4417"/>
</g>
		<g transform="matrix(1 0 0 1 186.7221 116.8782)">
<rect style="stroke: none; stroke-width: 1; stroke-dasharray: none; stroke-linecap: butt; stroke-dashoffset: 0; stroke-linejoin: miter; stroke-miterlimit: 4; is-custom-font: none; font-file-url: none; fill: rgb(47,46,65); fill-rule: nonzero; opacity: 1;" x="-6.54185" y="-11.72085" rx="0" ry="0" width="13.0837" height="23.4417"/>
</g>
		<g transform="matrix(1 0 0 1 208.5284 128.8716)">
<ellipse style="stroke: none; stroke-width: 1; stroke-dasharray: none; stroke-linecap: butt; stroke-dashoffset: 0; stroke-linejoin: miter; stroke-miterlimit: 4; is-custom-font: none; font-file-url: none; fill: rgb(47,46,65); fill-rule: nonzero; opacity: 1;" cx="0" cy="0" rx="10.90314" ry="4.08868"/>
</g>
		<g transform="matrix(1 0 0 1 182.3609 128.3264)">
<ellipse style="stroke: none; stroke-width: 1; stroke-dasharray: none; stroke-linecap: butt; stroke-dashoffset: 0; stroke-linejoin: miter; stroke-miterlimit: 4; is-custom-font: none; font-file-url: none; fill: rgb(47,46,65); fill-rule: nonzero; opacity: 1;" cx="0" cy="0" rx="10.90314" ry="4.08868"/>
</g>
		<g transform="matrix(1 0 0 1 198.7156 60.4545)">
<circle style="stroke: none; stroke-width: 1; stroke-dasharray: none; stroke-linecap: butt; stroke-dashoffset: 0; stroke-linejoin: miter; stroke-miterlimit: 4; is-custom-font: none; font-file-url: none; fill: rgb(255,255,255); fill-rule: nonzero; opacity: 1;" cx="0" cy="0" r="14.71921"/>
</g>
		<g transform="matrix(1 0 0 1 197.7156 67.4544)">
<circle style="stroke: none; stroke-width: 1; stroke-dasharray: none; stroke-linecap: butt; stroke-dashoffset: 0; stroke-linejoin: miter; stroke-miterlimit: 4; is-custom-font: none; font-file-url: none; fill: rgb(63,61,86); fill-rule: nonzero; opacity: 1;" cx="0" cy="0" r="4.90643"/>
</g>
		<g transform="matrix(1 0 0 1 210.4632 20.0606)">
<path style="stroke: none; stroke-width: 1; stroke-dasharray: none; stroke-linecap: butt; stroke-dashoffset: 0; stroke-linejoin: miter; stroke-miterlimit: 4; is-custom-font: none; font-file-url: none; fill: rgb(79,80,213); fill-rule: nonzero; opacity: 1;" transform=" translate(-810.4632, -470.0605)" d="M 841.58267 481.30618 c 3.47748 -15.57379 -7.63867 -31.31042 -24.82861 -35.1488 s -33.94421 5.67511 -37.42169 21.24884 s 7.91492 21.31762 25.10486 25.156 S 838.1052 496.88 841.58267 481.30618 Z" stroke-linecap="round"/>
</g>
		<g transform="matrix(0.8998 -0.4363 0.4363 0.8998 241.3141 89.3742)">
<ellipse style="stroke: none; stroke-width: 1; stroke-dasharray: none; stroke-linecap: butt; stroke-dashoffset: 0; stroke-linejoin: miter; stroke-miterlimit: 4; is-custom-font: none; font-file-url: none; fill: rgb(47,46,65); fill-rule: nonzero; opacity: 1;" cx="0" cy="0" rx="6.76007" ry="21.53369"/>
</g>
		<g transform="matrix(1 0 0 1 197.8446 90.5508)">
<path style="stroke: none; stroke-width: 1; stroke-dasharray: none; stroke-linecap: butt; stroke-dashoffset: 0; stroke-linejoin: miter; stroke-miterlimit: 4; is-custom-font: none; font-file-url: none; fill: rgb(255,255,255); fill-rule: nonzero; opacity: 1;" transform=" translate(-797.8446, -540.5508)" d="M 820.96045 536.89456 c 0 4.21515 -10.85327 12.53857 -22.89657 12.53857 s -23.33515 -11.867 -23.33515 -16.08209 s 11.29193 0.81775 23.33515 0.81775 S 820.96045 532.67941 820.96045 536.89456 Z" stroke-linecap="round"/>
</g>
		<g transform="matrix(1 0 0 1 167.5183 216.3576)">
<circle style="stroke: none; stroke-width: 1; stroke-dasharray: none; stroke-linecap: butt; stroke-dashoffset: 0; stroke-linejoin: miter; stroke-miterlimit: 4; is-custom-font: none; font-file-url: none; fill: rgb(47,46,65); fill-rule: nonzero; opacity: 1;" cx="0" cy="0" r="43.06733"/>
</g>
		<g transform="matrix(1 0 0 1 154.4346 261.8782)">
<rect style="stroke: none; stroke-width: 1; stroke-dasharray: none; stroke-linecap: butt; stroke-dashoffset: 0; stroke-linejoin: miter; stroke-miterlimit: 4; is-custom-font: none; font-file-url: none; fill: rgb(47,46,65); fill-rule: nonzero; opacity: 1;" x="-6.54185" y="-11.72085" rx="0" ry="0" width="13.0837" height="23.4417"/>
</g>
		<g transform="matrix(1 0 0 1 180.6021 261.8782)">
<rect style="stroke: none; stroke-width: 1; stroke-dasharray: none; stroke-linecap: butt; stroke-dashoffset: 0; stroke-linejoin: miter; stroke-miterlimit: 4; is-custom-font: none; font-file-url: none; fill: rgb(47,46,65); fill-rule: nonzero; opacity: 1;" x="-6.54185" y="-11.72085" rx="0" ry="0" width="13.0837" height="23.4417"/>
</g>
		<g transform="matrix(0.427 -0.9043 0.9043 0.427 157.7958 276.8716)">
<ellipse style="stroke: none; stroke-width: 1; stroke-dasharray: none; stroke-linecap: butt; stroke-dashoffset: 0; stroke-linejoin: miter; stroke-miterlimit: 4; is-custom-font: none; font-file-url: none; fill: rgb(47,46,65); fill-rule: nonzero; opacity: 1;" cx="0" cy="0" rx="4.08868" ry="10.90314"/>
</g>
		<g transform="matrix(0.3756 -0.9268 0.9268 0.3756 183.9633 276.3264)">
<ellipse style="stroke: none; stroke-width: 1; stroke-dasharray: none; stroke-linecap: butt; stroke-dashoffset: 0; stroke-linejoin: miter; stroke-miterlimit: 4; is-custom-font: none; font-file-url: none; fill: rgb(47,46,65); fill-rule: nonzero; opacity: 1;" cx="0" cy="0" rx="4.08868" ry="10.90314"/>
</g>
		<g transform="matrix(1 0 0 1 156.8611 165.0607)">
<path style="stroke: none; stroke-width: 1; stroke-dasharray: none; stroke-linecap: butt; stroke-dashoffset: 0; stroke-linejoin: miter; stroke-miterlimit: 4; is-custom-font: none; font-file-url: none; fill: rgb(79,80,213); fill-rule: nonzero; opacity: 1;" transform=" translate(-756.8611, -615.0606)" d="M 725.74162 626.3063 c -3.47748 -15.57379 7.63865 -31.31042 24.82866 -35.1488 s 33.94421 5.67511 37.42169 21.2489 s -7.91492 21.31769 -25.10486 25.156 S 729.21911 641.88009 725.74162 626.3063 Z" stroke-linecap="round"/>
</g>
		<g transform="matrix(0.3258 -0.9454 0.9454 0.3258 211.622 196.2364)">
<ellipse style="stroke: none; stroke-width: 1; stroke-dasharray: none; stroke-linecap: butt; stroke-dashoffset: 0; stroke-linejoin: miter; stroke-miterlimit: 4; is-custom-font: none; font-file-url: none; fill: rgb(47,46,65); fill-rule: nonzero; opacity: 1;" cx="0" cy="0" rx="23.89244" ry="7.50055"/>
</g>
		<g transform="matrix(0.7074 -0.7068 0.7068 0.7074 115.9166 195.2366)">
<ellipse style="stroke: none; stroke-width: 1; stroke-dasharray: none; stroke-linecap: butt; stroke-dashoffset: 0; stroke-linejoin: miter; stroke-miterlimit: 4; is-custom-font: none; font-file-url: none; fill: rgb(47,46,65); fill-rule: nonzero; opacity: 1;" cx="0" cy="0" rx="7.50055" ry="23.89244"/>
</g>
		<g transform="matrix(1 0 0 1 -158.4041 249.5741)">
<circle style="stroke: none; stroke-width: 1; stroke-dasharray: none; stroke-linecap: butt; stroke-dashoffset: 0; stroke-linejoin: miter; stroke-miterlimit: 4; is-custom-font: none; font-file-url: none; fill: rgb(47,46,65); fill-rule: nonzero; opacity: 1;" cx="0" cy="0" r="43.06733"/>
</g>
		<g transform="matrix(1 0 0 1 -171.4878 295.0947)">
<rect style="stroke: none; stroke-width: 1; stroke-dasharray: none; stroke-linecap: butt; stroke-dashoffset: 0; stroke-linejoin: miter; stroke-miterlimit: 4; is-custom-font: none; font-file-url: none; fill: rgb(47,46,65); fill-rule: nonzero; opacity: 1;" x="-6.54185" y="-11.72085" rx="0" ry="0" width="13.0837" height="23.4417"/>
</g>
		<g transform="matrix(1 0 0 1 -145.3203 295.0947)">
<rect style="stroke: none; stroke-width: 1; stroke-dasharray: none; stroke-linecap: butt; stroke-dashoffset: 0; stroke-linejoin: miter; stroke-miterlimit: 4; is-custom-font: none; font-file-url: none; fill: rgb(47,46,65); fill-rule: nonzero; opacity: 1;" x="-6.54185" y="-11.72085" rx="0" ry="0" width="13.0837" height="23.4417"/>
</g>
		<g transform="matrix(1 0 0 1 -167.1266 307.0881)">
<ellipse style="stroke: none; stroke-width: 1; stroke-dasharray: none; stroke-linecap: butt; stroke-dashoffset: 0; stroke-linejoin: miter; stroke-miterlimit: 4; is-custom-font: none; font-file-url: none; fill: rgb(47,46,65); fill-rule: nonzero; opacity: 1;" cx="0" cy="0" rx="10.90314" ry="4.08868"/>
</g>
		<g transform="matrix(1 0 0 1 -140.9591 306.543)">
<ellipse style="stroke: none; stroke-width: 1; stroke-dasharray: none; stroke-linecap: butt; stroke-dashoffset: 0; stroke-linejoin: miter; stroke-miterlimit: 4; is-custom-font: none; font-file-url: none; fill: rgb(47,46,65); fill-rule: nonzero; opacity: 1;" cx="0" cy="0" rx="10.90314" ry="4.08868"/>
</g>
		<g transform="matrix(1 0 0 1 -169.0613 198.2772)">
<path style="stroke: none; stroke-width: 1; stroke-dasharray: none; stroke-linecap: butt; stroke-dashoffset: 0; stroke-linejoin: miter; stroke-miterlimit: 4; is-custom-font: none; font-file-url: none; fill: rgb(63,61,86); fill-rule: nonzero; opacity: 1;" transform=" translate(-430.9386, -648.2772)" d="M 399.81918 659.52284 c -3.47747 -15.57379 7.63866 -31.31043 24.82866 -35.1488 s 33.94422 5.6751 37.4217 21.2489 s -7.91492 21.31768 -25.10486 25.156 S 403.29668 675.09663 399.81918 659.52284 Z" stroke-linecap="round"/>
</g>
		<g transform="matrix(0.4676 -0.8839 0.8839 0.4676 -124.3005 249.453)">
<ellipse style="stroke: none; stroke-width: 1; stroke-dasharray: none; stroke-linecap: butt; stroke-dashoffset: 0; stroke-linejoin: miter; stroke-miterlimit: 4; is-custom-font: none; font-file-url: none; fill: rgb(47,46,65); fill-rule: nonzero; opacity: 1;" cx="0" cy="0" rx="7.50055" ry="23.89244"/>
</g>
		<g transform="matrix(0.9035 -0.4285 0.4285 0.9035 -167.2762 27.0159)">
<ellipse style="stroke: none; stroke-width: 1; stroke-dasharray: none; stroke-linecap: butt; stroke-dashoffset: 0; stroke-linejoin: miter; stroke-miterlimit: 4; is-custom-font: none; font-file-url: none; fill: rgb(47,46,65); fill-rule: nonzero; opacity: 1;" cx="0" cy="0" rx="21.53369" ry="6.76007"/>
</g>
		<g transform="matrix(0.642 -0.7667 0.7667 0.642 -261.5915 54.4774)">
<ellipse style="stroke: none; stroke-width: 1; stroke-dasharray: none; stroke-linecap: butt; stroke-dashoffset: 0; stroke-linejoin: miter; stroke-miterlimit: 4; is-custom-font: none; font-file-url: none; fill: rgb(47,46,65); fill-rule: nonzero; opacity: 1;" cx="0" cy="0" rx="21.53369" ry="6.76007"/>
</g>
		<g transform="matrix(1 0 0 1 -215.7844 46.9995)">
<circle style="stroke: none; stroke-width: 1; stroke-dasharray: none; stroke-linecap: butt; stroke-dashoffset: 0; stroke-linejoin: miter; stroke-miterlimit: 4; is-custom-font: none; font-file-url: none; fill: rgb(47,46,65); fill-rule: nonzero; opacity: 1;" cx="0" cy="0" r="43.06732"/>
</g>
		<g transform="matrix(1 0 0 1 -227.4714 92.5199)">
<rect style="stroke: none; stroke-width: 1; stroke-dasharray: none; stroke-linecap: butt; stroke-dashoffset: 0; stroke-linejoin: miter; stroke-miterlimit: 4; is-custom-font: none; font-file-url: none; fill: rgb(47,46,65); fill-rule: nonzero; opacity: 1;" x="-6.54185" y="-11.72085" rx="0" ry="0" width="13.0837" height="23.4417"/>
</g>
		<g transform="matrix(1 0 0 1 -201.3038 92.5199)">
<rect style="stroke: none; stroke-width: 1; stroke-dasharray: none; stroke-linecap: butt; stroke-dashoffset: 0; stroke-linejoin: miter; stroke-miterlimit: 4; is-custom-font: none; font-file-url: none; fill: rgb(47,46,65); fill-rule: nonzero; opacity: 1;" x="-6.54185" y="-11.72085" rx="0" ry="0" width="13.0837" height="23.4417"/>
</g>
		<g transform="matrix(1 0 0 1 -223.1101 104.5133)">
<ellipse style="stroke: none; stroke-width: 1; stroke-dasharray: none; stroke-linecap: butt; stroke-dashoffset: 0; stroke-linejoin: miter; stroke-miterlimit: 4; is-custom-font: none; font-file-url: none; fill: rgb(47,46,65); fill-rule: nonzero; opacity: 1;" cx="0" cy="0" rx="10.90314" ry="4.08868"/>
</g>
		<g transform="matrix(1 0 0 1 -196.9426 103.9682)">
<ellipse style="stroke: none; stroke-width: 1; stroke-dasharray: none; stroke-linecap: butt; stroke-dashoffset: 0; stroke-linejoin: miter; stroke-miterlimit: 4; is-custom-font: none; font-file-url: none; fill: rgb(47,46,65); fill-rule: nonzero; opacity: 1;" cx="0" cy="0" rx="10.90314" ry="4.08868"/>
</g>
		<g transform="matrix(1 0 0 1 -233.2989 -3.3034)">
<path style="stroke: none; stroke-width: 1; stroke-dasharray: none; stroke-linecap: butt; stroke-dashoffset: 0; stroke-linejoin: miter; stroke-miterlimit: 4; is-custom-font: none; font-file-url: none; fill: rgb(79,80,213); fill-rule: nonzero; opacity: 1;" transform=" translate(-366.7011, -446.6967)" d="M 397.73848 442.86256 c -3.84558 -15.487 -20.82055 -24.60077 -37.91473 -20.35617 s -27.83429 20.24029 -23.98871 35.72729 s 16.60394 15.537 33.69812 11.29236 S 401.58407 458.34959 397.73848 442.86256 Z" stroke-linecap="round"/>
</g>
		<g transform="matrix(1 0 0 1 -209.3458 37.9119)">
<circle style="stroke: none; stroke-width: 1; stroke-dasharray: none; stroke-linecap: butt; stroke-dashoffset: 0; stroke-linejoin: miter; stroke-miterlimit: 4; is-custom-font: none; font-file-url: none; fill: rgb(255,255,255); fill-rule: nonzero; opacity: 1;" cx="0" cy="0" r="14.35864"/>
</g>
		<g transform="matrix(1 0 0 1 -208.4444 43.7651)">
<circle style="stroke: none; stroke-width: 1; stroke-dasharray: none; stroke-linecap: butt; stroke-dashoffset: 0; stroke-linejoin: miter; stroke-miterlimit: 4; is-custom-font: none; font-file-url: none; fill: rgb(63,61,86); fill-rule: nonzero; opacity: 1;" cx="0" cy="0" r="4.78621"/>
</g>
		<g transform="matrix(1 0 0 1 -208.9433 70.976)">
<path style="stroke: none; stroke-width: 1; stroke-dasharray: none; stroke-linecap: butt; stroke-dashoffset: 0; stroke-linejoin: miter; stroke-miterlimit: 4; is-custom-font: none; font-file-url: none; fill: rgb(255,255,255); fill-rule: nonzero; opacity: 1;" transform=" translate(-391.0567, -520.976)" d="M 381.64687 517.82731 a 9.57244 9.57244 0 1 0 18.83533 3.42883 h 0 l 0.00335 -0.01849 c 0.94178 -5.20215 -3.08038 -7.043 -8.28253 -7.98474 S 382.58858 512.62522 381.64687 517.82731 Z" stroke-linecap="round"/>
</g>
		<g transform="matrix(1 0 0 1 10.4611 309.768)">
<path style="stroke: none; stroke-width: 1; stroke-dasharray: none; stroke-linecap: butt; stroke-dashoffset: 0; stroke-linejoin: miter; stroke-miterlimit: 4; is-custom-font: none; font-file-url: none; fill: rgb(202,202,202); fill-rule: nonzero; opacity: 1;" transform=" translate(-610.4611, -759.768)" d="M 943.83959 760.805 l -666.75 0.30733 a 1.19069 1.19069 0 1 1 0 -2.38137 l 666.75 -0.30733 a 1.19069 1.19069 0 0 1 0 2.38137 Z" stroke-linecap="round"/>
</g>
</g>
</g>
</svg>