<svg xmlns="http://www.w3.org/2000/svg" xmlns:xlink="http://www.w3.org/1999/xlink" data-name="Layer 1" width="690.06055" height="622.3536"><rect id="backgroundrect" width="100%" height="100%" x="0" y="0" fill="none" stroke="none"/><g class="currentLayer" style=""><title>Layer 1</title><path d="M131.60251343750002,424.8807335888672 a4.75474,4.75474 0 0 1 -6.35718,-6.27512 c-0.07312000000000002,-0.48591000000000006 -0.12571000000000002,-0.83481 -0.19884000000000004,-1.3207200000000001 q-0.11935000000000001,-0.11872000000000003 -0.23932,-0.23700000000000002 c-8.06365,-7.94283 -21.72414,-2.156 -21.69794,9.1626 c0.023160000000000007,10.04585 -0.91852,20.51209 1.7498300000000002,30.029 a37.77438,37.77438 0 0 0 5.6211400000000005,11.731 A151.44464,151.44464 0 0 1 73.51564343749999,415.24680358886724 a146.17408,146.17408 0 0 1 -5.4512,-15.39549 q-1.8742800000000002,-6.4329 -3.1751300000000002,-13.00268 a153.19909,153.19909 0 0 1 2.99513,-71.6232 a40.77066,40.77066 0 0 0 8.86168,-22.7703 a31.09989,31.09989 0 0 0 -0.6673100000000001,-8.93191 c-0.7198800000000001,0.41819 -1.468,0.8041400000000001 -2.20872,1.17233 c-0.23208,0.11158000000000001 -0.47655000000000003,0.22846000000000005 -0.70859,0.34014000000000005 l-0.08781000000000001,0.04141000000000001 a4.71087,4.71087 0 0 1 -6.52909,-5.58948 q0.2396,-0.81321 0.48000000000000004,-1.62608 c0.23858000000000001,-0.8331000000000001 0.4948200000000001,-1.6588600000000002 0.7333400000000001,-2.49182 a2.34448,2.34448 0 0 0 0.08400000000000002,-0.25521 c0.277,-0.9518000000000001 0.55906,-1.891 0.83608,-2.8427800000000003 a13.62207,13.62207 0 0 0 -5.785,-2.261 c-7.165,-0.9657300000000001 -14.13048,4.68785 -16.11248,11.63223 c-1.99447,6.94947 0.27158000000000004,14.58274 4.43848,20.48273 c3.56355,5.05222 8.39465,9.032 13.45863,12.621 c-0.14523000000000003,0.5300900000000001 -0.30812000000000006,1.05284 -0.45325,1.58288 a154.18839,154.18839 0 0 0 -5.01794,29.72964 a64.09769,64.09769 0 0 0 -15.01062,-25.99425 c-6.78672,-6.7405 -15.99073,-10.95964 -24.51449,-15.67656 c-10.2384,-5.66572 -22.43421,3.771 -19.12976,14.99613 q0.04800000000000001,0.16300000000000003 0.09676000000000004,0.32561000000000007 q1.53587,0.18177000000000001 3.05519,0.47154 a6.44948,6.44948 0 0 1 2.1264,11.83187 l-0.11351000000000001,0.06945000000000001 a64.17223,64.17223 0 0 0 5.26036,8.20051 a66.07238,66.07238 0 0 0 46.32118,25.52262 c0.59133,0.046190000000000016 1.17024,0.09757000000000003 1.75637,0.13133 a157.38092,157.38092 0 0 0 7.55606,40.0508 a149.26937,149.26937 0 0 0 9.39329,22.19615 l-0.14707,-0.24656000000000003 a39.44354,39.44354 0 0 0 -21.20583,-15.82224 c-12.843,-3.85833 -27.55918,-1.1055 -40.5118,-3.108 c-6.235,-0.9640000000000001 -10.95624,5.622 -7.68408,11.0162 q0.07833000000000001,0.12916 0.15738000000000002,0.258 a43.32944,43.32944 0 0 1 5.38518,0.28676 q1.53593,0.18192000000000003 3.05519,0.47154 a6.44955,6.44955 0 0 1 2.12644,11.832 l-0.11365000000000001,0.06939000000000002 c-0.08214000000000002,0.04900000000000001 -0.15186000000000002,0.09289000000000003 -0.23390000000000002,0.14189000000000002 a64.22762,64.22762 0 0 0 18.03343,12.51319 A66.131,66.131 0 0 0 87.23027343749999,446.51980358886715 l0.012520000000000002,-0.00523 a157.33608,157.33608 0 0 0 21.649,24.39316 l34.83637,-14.55838 c-0.03681000000000001,-0.4393000000000001 -0.09148000000000002,-0.8858400000000002 -0.14082,-1.3199 a42.89759,42.89759 0 0 1 -9.87941,3.4541399999999998 c1.25926,-4.25172 2.508,-8.52835 3.7673,-12.78 a2.34586,2.34586 0 0 0 0.08407000000000002,-0.25511 c0.6327000000000002,-2.171 1.28311,-4.3349 1.91581,-6.50594 l-0.00013000000000000004,-0.0023000000000000004 a62.83649,62.83649 0 0 0 -7.871,-14.05928 zm-72.6876,-61.80369 l0.008000000000000002,-0.03241000000000001 l0.0024300000000000007,0.05736000000000001 zm21.35349,72.78525 l-0.58143,-0.54891 c-0.19100000000000003,-0.49221000000000004 -0.3945000000000001,-0.97919 -0.6157300000000001,-1.47335 c-0.05745000000000001,-0.13748000000000002 -0.13977,-0.26433 -0.19718000000000002,-0.4017 c0.47236000000000006,0.81458 0.9323400000000001,1.63446 1.41723,2.44381 z" fill="#f2f2f2" id="svg_1"/><path d="M451.2802734375,185.47958358886717 a62.83608,62.83608 0 0 0 -1.84118,16.007 l0.0007600000000000003,0.0021700000000000005 c1.4209100000000001,1.7591900000000003 2.85539,3.5049200000000003 4.2763,5.26411 a2.34417,2.34417 0 0 0 0.17593000000000003,0.203 c2.80131,3.43726 5.60251,6.90168 8.40382,10.339 a42.89815,42.89815 0 0 1 -10.447330000000001,0.62238 c0.12185,0.41952000000000006 0.24359000000000003,0.8526100000000001 0.37900000000000006,1.27213 h37.756 a157.33574,157.33574 0 0 0 10.56907,-30.85448 h0.013570000000000004 a66.131,66.131 0 0 0 47.95979,-21.04332 a64.22737,64.22737 0 0 0 11.81393,-18.49907 c-0.09459000000000004,-0.013580000000000004 -0.17582,-0.027150000000000007 -0.27052000000000004,-0.04073000000000001 l-0.13162,-0.020200000000000003 a6.44954,6.44954 0 0 1 -2.60029,-11.736930000000001 q1.2890000000000001,-0.85245 2.63711,-1.61313 a43.325,43.325 0 0 1 4.85817,-2.34107 q0.023300000000000008,-0.14938 0.04572000000000001,-0.29876 c0.93916,-6.23879 -5.95643,-10.495 -11.33762,-7.20141 c-11.17885,6.84206 -25.81853,9.97655 -36.1806,18.48864 A39.44361,39.44361 0 0 0 503.8952734375,166.8044735888672 l-0.040610000000000014,0.2842 a149.27013,149.27013 0 0 0 0.10827000000000002,-24.10168 a157.38053,157.38053 0 0 0 -8.47148,-39.86721 c0.5277900000000001,-0.25717 1.04212,-0.5278 1.5699100000000001,-0.79842 a66.07236,66.07236 0 0 0 32.89787,-41.41 a64.17245,64.17245 0 0 0 1.6915400000000003,-9.59472 l-0.13151000000000002,-0.020310000000000005 a6.44947,6.44947 0 0 1 -2.60029,-11.73683 q1.2890000000000001,-0.8524400000000001 2.6371,-1.61312 q-0.017740000000000002,-0.16893000000000005 -0.036270000000000004,-0.33775000000000005 c-1.2794,-11.63127 -16.17081,-15.63564 -23.43283,-6.46022 c-6.04581,7.63885 -12.91121,15.0807 -16.574,23.91685 a64.09761,64.09761 0 0 0 -3.8267,29.77207 a154.1888,154.1888 0 0 0 -16.09338,-25.49577 c-0.33829000000000004,-0.43309000000000003 -0.6901500000000002,-0.8526100000000001 -1.02854,-1.2857 c3.28848,-5.26412 6.21142,-10.799 7.55131,-16.83457 c1.56969,-7.05046 0.7171900000000001,-14.96722 -3.8027,-20.61024 c-4.50642,-5.64312 -13.11321,-8.17369 -19.35178,-4.51988 a13.622,13.622 0 0 0 -4.46581,4.3168 c0.6226000000000002,0.77138 1.245,1.52919 1.86758,2.30056 a2.34351,2.34351 0 0 0 0.17593000000000003,0.20308 c0.54125,0.6765800000000001 1.09609,1.33968 1.63745,2.01636 q0.53545,0.6571300000000001 1.06992,1.31524 a4.71087,4.71087 0 0 1 -3.86895,7.6748 l-0.09700000000000003,-0.004350000000000001 c-0.25716,-0.013570000000000004 -0.5277900000000001,-0.027150000000000007 -0.78495,-0.040610000000000014 c-0.82546,-0.05409000000000001 -1.6644900000000002,-0.12174000000000001 -2.49,-0.23 a31.09981,31.09981 0 0 0 2.82836,8.49852 a40.77074,40.77074 0 0 0 16.95642,17.59249 a153.199,153.199 0 0 1 30.38076,64.92967 q1.3398500000000002,6.55666 2.08413,13.22149 a146.1742,146.1742 0 0 1 0.9066900000000001,16.30689 a151.44452,151.44452 0 0 1 -13.77632,62.89974 a37.77432,37.77432 0 0 0 0.6631100000000001,-12.99126 c-1.20762,-9.80985 -6.11217,-19.10364 -9.96439,-28.38157 c-4.34016,-10.45341 -19.17564,-10.52541 -23.553,-0.08753000000000002 q-0.06516000000000002,0.15540000000000004 -0.12945,0.3109200000000001 c0.11990000000000002,0.47653 0.20591000000000004,0.8187300000000001 0.3258000000000001,1.29526 a4.7547500000000005,4.7547500000000005 0 0 1 -3.44595,8.24114 zm43.23693,-85.0258 l-0.019870000000000002,-0.05386000000000001 l0.019870000000000002,0.026820000000000004 zm8.34963,75.39057 c0.13532,-0.9337300000000001 0.24359000000000003,-1.8675700000000002 0.36533000000000004,-2.8013 c0,0.14888 -0.027000000000000007,0.29766000000000004 -0.027000000000000007,0.44666000000000006 c-0.013580000000000004,0.54126 -0.013580000000000004,1.06905 0,1.5968400000000003 l-0.3248200000000001,0.7306600000000001 z" fill="#f2f2f2" id="svg_2"/><path d="M413.24192343749996,418.13701358886715 h-115.51 a6.1631,6.1631 0 0 0 -6.15377,6.16965 V606.7784535888671 H419.4115734375 V424.3066635888672 A6.16641,6.16641 0 0 0 413.24192343749996,418.13701358886715 zM355.8755434375,521.8152535888672 a13.70383,13.70383 0 0 1 -13.639850000000001,-13.63975 V487.12896358886724 a13.639800000000001,13.639800000000001 0 0 1 27.2796,0 V508.1755035888672 a13.70365,13.70365 0 0 1 -13.63975,13.63975 z" fill="#e6e6e6" id="svg_3"/><path d="M291.18164343750004,600.9419135888672 V618.5468035888672 a3.44873,3.44873 0 0 0 3.4417400000000002,3.44164 h121.743 A3.459,3.459 0 0 0 419.80807343749996,618.5468035888672 v-17.6049 z" fill="#ccc" id="svg_4"/><path d="M604.5161234375,133.36917358886717 H110.75587343749999 a16.02852,16.02852 0 0 0 -16.003,16.0029 V482.56358358886723 a16.01831,16.01831 0 0 0 16.003,16.0029 H604.5161234375 a16.0183,16.0183 0 0 0 16.003,-16.0029 V149.37207358886718 A16.02851,16.02851 0 0 0 604.5161234375,133.36917358886717 z" fill="#e6e6e6" id="svg_5"/><path d="M600.3928034375,144.92332358886716 h-485.51 a8.58039,8.58039 0 0 0 -8.56,8.58 v324.93 a8.56973,8.56973 0 0 0 8.56,8.56 h485.51 a8.56969,8.56969 0 0 0 8.56,-8.56 v-324.93 A8.58035,8.58035 0 0 0 600.3928034375,144.92332358886716 z" fill="#fff" id="svg_6"/><path d="M168.13515343749998,468.36630358886714 a53.04951,53.04951 0 0 1 -3.34507,18.62906 H114.88116343749999 a8.57312,8.57312 0 0 1 -8.55835,-8.55836 V415.66389358886715 a52.71641,52.71641 0 0 1 8.43379,-0.6761400000000002 A53.37521,53.37521 0 0 1 168.13515343749998,468.36630358886714 z" fill="#6767e7" id="svg_7" class="selected" fill-opacity="1"/><path d="M608.9528034375,153.50333358886718 v282.82 a179.02233,179.02233 0 0 1 -183.37,-291.4 h174.81 A8.58035,8.58035 0 0 1 608.9528034375,153.50333358886718 z" fill="#e6e6e6" id="svg_8"/><path d="M575.9887034375,189.6963435888672 h-454.293 a1.807,1.807 0 0 1 0,-3.61318 h454.293 a1.807,1.807 0 0 1 0,3.61318 z" fill="#cacaca" id="svg_9"/><ellipse cx="152.6199951171875" cy="166.0355987548828" rx="10.587510108947754" ry="10.823450088500977" fill="#3f3d56" id="svg_10"/><ellipse cx="189.1950225830078" cy="166.0355987548828" rx="10.587510108947754" ry="10.823450088500977" fill="#3f3d56" id="svg_11"/><ellipse cx="225.77003479003906" cy="166.0355987548828" rx="10.587510108947754" ry="10.823450088500977" fill="#3f3d56" id="svg_12"/><path d="M553.9674434375,157.8948535888672 h-25.981 a1.9676200000000001,1.9676200000000001 0 0 0 0,3.93446 h25.981 a1.9676200000000001,1.9676200000000001 0 0 0 0,-3.93446 z" fill="#3f3d56" id="svg_13"/><path d="M553.9674434375,165.27922358886718 h-25.981 a1.9676200000000001,1.9676200000000001 0 0 0 0,3.93446 h25.981 a1.9676200000000001,1.9676200000000001 0 0 0 0,-3.93446 z" fill="#3f3d56" id="svg_14"/><path d="M553.9674434375,172.65389358886716 h-25.981 a1.9676200000000001,1.9676200000000001 0 0 0 0,3.93446 h25.981 a1.9676200000000001,1.9676200000000001 0 0 0 0,-3.93446 z" fill="#3f3d56" id="svg_15"/><ellipse cx="429.76952362060547" cy="661.3009338378906" rx="6.760069847106934" ry="21.533689498901367" transform="rotate(-64.62574005126953 -117.71869659423821,466.9267883300782) " fill="#2f2e41" id="svg_16"/><ellipse cx="394.13348388671875" cy="546.7731323242188" rx="6.760069847106934" ry="21.533689498901367" transform="rotate(-39.93836975097656 -247.67004394531253,324.9374694824219) " fill="#2f2e41" id="svg_17"/><circle cx="341.02667236328125" cy="75.53456115722656" r="43.06732177734375" fill="#2f2e41" id="svg_18"/><rect x="346.1717224121094" y="109.33409118652344" width="13.083740234375" height="23.441709518432617" fill="#2f2e41" id="svg_19"/><rect x="320.0042419433594" y="109.33409118652344" width="13.083740234375" height="23.441709518432617" fill="#2f2e41" id="svg_20"/><ellipse cx="348.3523254394531" cy="133.0483856201172" rx="10.9031400680542" ry="4.088679790496826" fill="#2f2e41" id="svg_21"/><ellipse cx="322.1848449707031" cy="132.50323486328125" rx="10.9031400680542" ry="4.088679790496826" fill="#2f2e41" id="svg_22"/><path d="M327.50381343749996,21.39762358886719 c3.84558,-15.487 20.82055,-24.60077 37.91473,-20.35617 S393.25283343750004,21.281803588867177 389.40727343749995,36.7688035888672 s-16.604,15.537 -33.69812,11.29236 S323.65827343750004,36.884653588867195 327.50381343749996,21.39762358886719 z" fill="#e6e6e6" id="svg_23"/><circle cx="334.5880432128906" cy="66.44696807861328" r="14.35863971710205" fill="#fff" id="svg_24"/><circle cx="333.6866760253906" cy="72.30017852783203" r="4.786210060119629" fill="#3f3d56" id="svg_25"/><path d="M352.83280343750005,92.44334358886718 c0.9468400000000001,5.20123 -11.7394,14.10428 -16.94063,15.05112 a9.57245,9.57245 0 0 1 -11.13208,-7.70325 h0 l-0.003360000000000001,-0.018490000000000003 c-0.9417700000000001,-5.20215 3.08039,-7.043 8.282540000000001,-7.98475 S351.8910934375,87.24125358886718 352.83280343750005,92.44334358886718 z" fill="#fff" id="svg_26"/><ellipse cx="375.6307373046875" cy="1195.1647338867188" rx="21.533689498901367" ry="6.760069847106934" transform="rotate(-52.45248031616211 -379.36804199218733,666.3291625976565) " fill="#2f2e41" id="svg_27"/><circle cx="544.8362426757812" cy="382.53448486328125" r="43.06734848022461" fill="#2f2e41" id="svg_28"/><rect x="551.3780517578125" y="416.3341064453125" width="13.083740234375" height="23.441709518432617" fill="#2f2e41" id="svg_29"/><rect x="525.2106323242188" y="416.3341064453125" width="13.083740234375" height="23.441709518432617" fill="#2f2e41" id="svg_30"/><ellipse cx="553.5586547851562" cy="440.0483703613281" rx="10.9031400680542" ry="4.088679790496826" fill="#2f2e41" id="svg_31"/><ellipse cx="527.3911743164062" cy="439.50323486328125" rx="10.9031400680542" ry="4.088679790496826" fill="#2f2e41" id="svg_32"/><circle cx="543.745849609375" cy="371.63128662109375" r="14.719209671020508" fill="#fff" id="svg_33"/><circle cx="542.745849609375" cy="378.63128662109375" r="4.906429767608643" fill="#3f3d56" id="svg_34"/><path d="M586.6129434375,342.48298358886717 c3.47748,-15.57379 -7.63867,-31.31042 -24.82861,-35.1488 s-33.94421,5.67511 -37.42169,21.24884 s7.91492,21.31762 25.10486,25.156 S583.1354734375,358.0568035888672 586.6129434375,342.48298358886717 z" fill="#6767e7" id="svg_35" class="" fill-opacity="1"/><ellipse cx="435.3075866699219" cy="821.7149963378906" rx="6.760069847106934" ry="21.533689498901367" transform="rotate(-25.87116050720215 -406.0065002441406,282.3407897949219) " fill="#2f2e41" id="svg_36"/><path d="M565.9907234375,398.07136358886714 c0,4.21515 -10.85327,12.53857 -22.89657,12.53857 s-23.33515,-11.867 -23.33515,-16.08209 s11.29193,0.8177500000000001 23.33515,0.8177500000000001 S565.9907234375,393.85621358886715 565.9907234375,398.07136358886714 z" fill="#fff" id="svg_37"/><circle cx="512.5486450195312" cy="527.534423828125" r="43.06732940673828" fill="#2f2e41" id="svg_38"/><rect x="492.92303466796875" y="561.3341064453125" width="13.083740234375" height="23.441709518432617" fill="#2f2e41" id="svg_39"/><rect x="519.0905151367188" y="561.3341064453125" width="13.08372974395752" height="23.441709518432617" fill="#2f2e41" id="svg_40"/><ellipse cx="279.7723693847656" cy="1689.7945556640625" rx="4.088679790496826" ry="10.9031400680542" transform="rotate(-64.72329711914062 -478.0234680175782,962.9229736328125) " fill="#2f2e41" id="svg_41"/><ellipse cx="345.3679504394531" cy="1767.6136474609375" rx="4.088679790496826" ry="10.9031400680542" transform="rotate(-67.9403305053711 -438.59542846679705,1041.2872314453125) " fill="#2f2e41" id="svg_42"/><path d="M470.7718934375,487.48310358886715 c-3.47748,-15.57379 7.63865,-31.31042 24.82866,-35.1488 s33.94421,5.67511 37.42169,21.2489 s-7.91492,21.31769 -25.10486,25.156 S474.2493834375,503.0568935888672 470.7718934375,487.48310358886715 z" fill="#6767e7" id="svg_43" class="" fill-opacity="1"/><ellipse cx="492.8570556640625" cy="1710.4229736328125" rx="23.892440795898438" ry="7.500549793243408" transform="rotate(-70.98452758789062 -318.7649536132813,1064.1865234375) " fill="#2f2e41" id="svg_44"/><ellipse cx="214.36386108398438" cy="1201.2569580078125" rx="7.500549793243408" ry="23.892440795898438" transform="rotate(-44.977901458740234 -501.55282592773443,556.0205078125) " fill="#2f2e41" id="svg_45"/><circle cx="186.62620544433594" cy="560.7509155273438" r="43.06732940673828" fill="#2f2e41" id="svg_46"/><rect x="167.00059509277344" y="594.5505981445312" width="13.083740234375" height="23.441709518432617" fill="#2f2e41" id="svg_47"/><rect x="193.16807556152344" y="594.5505981445312" width="13.08372974395752" height="23.441709518432617" fill="#2f2e41" id="svg_48"/><ellipse cx="177.90367126464844" cy="618.264892578125" rx="10.9031400680542" ry="4.088679790496826" fill="#2f2e41" id="svg_49"/><ellipse cx="204.0712127685547" cy="617.7197265625" rx="10.9031400680542" ry="4.088679790496826" fill="#2f2e41" id="svg_50"/><path d="M144.84945343750002,520.6996435888672 c-3.4774700000000003,-15.57379 7.63866,-31.31043 24.82866,-35.1488 s33.94422,5.6751000000000005 37.4217,21.2489 s-7.91492,21.31768 -25.10486,25.156 S148.32695343749998,536.2734335888672 144.84945343750002,520.6996435888672 z" fill="#3f3d56" id="svg_51"/><ellipse cx="-144.28155517578125" cy="1353.5145263671875" rx="7.500549793243408" ry="23.892440795898438" transform="rotate(-62.12179183959961 -619.9811401367185,654.0615844726565) " fill="#2f2e41" id="svg_52"/><ellipse cx="15.0845947265625" cy="569.6462097167969" rx="21.533689498901367" ry="6.760069847106934" transform="rotate(-25.37425994873047 -417.6392211914062,92.63034057617188) " fill="#2f2e41" id="svg_53"/><ellipse cx="-182.19921875" cy="805.7454223632812" rx="21.533689498901367" ry="6.760069847106934" transform="rotate(-50.06163024902344 -520.6077270507812,301.26803588867193) " fill="#2f2e41" id="svg_54"/><circle cx="129.24591064453125" cy="358.1763000488281" r="43.06732177734375" fill="#2f2e41" id="svg_55"/><rect x="111.0171127319336" y="391.975830078125" width="13.083740234375" height="23.441709518432617" fill="#2f2e41" id="svg_56"/><rect x="137.18458557128906" y="391.975830078125" width="13.083740234375" height="23.441709518432617" fill="#2f2e41" id="svg_57"/><ellipse cx="121.92024993896484" cy="415.69012451171875" rx="10.9031400680542" ry="4.088679790496826" fill="#2f2e41" id="svg_58"/><ellipse cx="148.0877227783203" cy="415.1449890136719" rx="10.9031400680542" ry="4.088679790496826" fill="#2f2e41" id="svg_59"/><path d="M142.76875343749998,304.03936358886716 c-3.84558,-15.487 -20.82055,-24.60077 -37.91473,-20.35617 s-27.83429,20.24029 -23.98871,35.72729 s16.60394,15.537 33.69812,11.29236 S146.6143434375,319.52639358886717 142.76875343749998,304.03936358886716 z" fill="#6767e7" id="svg_60" class="" fill-opacity="1"/><circle cx="135.6845245361328" cy="349.0887145996094" r="14.35863971710205" fill="#fff" id="svg_61"/><circle cx="136.58590698242188" cy="354.9419250488281" r="4.786210060119629" fill="#3f3d56" id="svg_62"/><path d="M126.67714343749998,379.0041135888672 a9.57244,9.57244 0 1 0 18.83533,3.42883 h0 l0.003350000000000001,-0.018490000000000003 c0.9417800000000001,-5.20215 -3.08038,-7.043 -8.28253,-7.98474 S127.61885343749998,373.8020235888672 126.67714343749998,379.0041135888672 z" fill="#fff" id="svg_63"/><path d="M688.8698634375,621.9818035888671 l-666.75,0.30733000000000005 a1.19069,1.19069 0 1 1 0,-2.38137 l666.75,-0.30733000000000005 a1.19069,1.19069 0 0 1 0,2.38137 z" fill="#cacaca" id="svg_64"/></g></svg>